/* XPM */
static char *_5a6d3dec7d04accb473f2c6c5e93db5Njae5fJCwPMfXlU1[] = {
/* columns rows colors chars-per-pixel */
"16 23 6 1 ",
"  c None",
". c #222222",
"X c #5F2D56",
"o c #DA4E38",
"O c #9F294E",
"+ c #FDF7ED",
/* pixels */
"                ",
"                ",
"                ",
"                ",
"    .       .   ",
"   .+.     .+.  ",
"   .++.....++.  ",
"   .++.ooo.++.  ",
"   ...ooooo...  ",
"   .Oooooooo.   ",
"   .Oo++ooo+.   ",
"   .Oo++ooo+.   ",
"   .OoXXoooX.   ",
"   ..+.+.+.+.   ",
"    ........    ",
"     ......     ",
"    ........    ",
"   .+.+.+.+.+   ",
"   .Oooooooo.   ",
"  .OOO....OO.   ",
"  .O..   .OO.   ",
"  ..      .O.   ",
"          .O.   "
};
