/* XPM */
static char * short_run_anim_01_xpm[] = {
"48 48 5 1",
" 	c None",
".	c #FFFFFF",
"+	c #0288D1",
"@	c #01579B",
"#	c #000000",
"                                                ",
"                                                ",
"                                                ",
"                                                ",
"                     ......                     ",
"                     ......                     ",
"                     ......                     ",
"                  ...++++++@@@                  ",
"                  ...++++++@@@                  ",
"                  ...++++++@@@                  ",
"               ...+++++++++@@@@@@               ",
"               ...+++++++++@@@@@@               ",
"               ...+++++++++@@@@@@               ",
"               ...++++++++++++@@@               ",
"               ...++++++++++++@@@               ",
"               ...++++++++++++@@@               ",
"            ...+++++++++++++++@@@@@@            ",
"            ...+++++++++++++++@@@@@@            ",
"            ...+++++++++++++++@@@@@@            ",
"         ...+++...###++++++...###@@@@@@         ",
"         ...+++...###++++++...###@@@@@@         ",
"         ...+++...###++++++...###@@@@@@         ",
"         ...@@@######++++++######@@@@@@         ",
"         ...@@@######++++++######@@@@@@         ",
"         ...@@@######++++++######@@@@@@         ",
"         ...+++@@@@@@++++++@@@@@@@@@@@@         ",
"         ...+++@@@@@@++++++@@@@@@@@@@@@         ",
"         ...+++@@@@@@++++++@@@@@@@@@@@@         ",
"         ...+++++++++++++++@@@@@@@@@@@@         ",
"         ...+++++++++++++++@@@@@@@@@@@@         ",
"         ...+++++++++++++++@@@@@@@@@@@@         ",
"         ...+++++++++++++++@@@@@@@@@@@@         ",
"         ...+++++++++++++++@@@@@@@@@@@@         ",
"         ...+++++++++++++++@@@@@@@@@@@@         ",
"         ...++++++++++++@@@@@@@@@@@@@@@         ",
"         ...++++++++++++@@@@@@@@@@@@@@@         ",
"         ...++++++++++++@@@@@@@@@@@@@@@         ",
"            @@@++++++@@@@@@@@@@@@@@@            ",
"            @@@++++++@@@@@@@@@@@@@@@            ",
"            @@@++++++@@@@@@@@@@@@@@@            ",
"               @@@@@@@@@@@@@@@@@@               ",
"               @@@@@@@@@@@@@@@@@@               ",
"               @@@@@@@@@@@@@@@@@@               ",
"                                                ",
"                                                ",
"                                                ",
"                                                ",
"                                                "};
