/* XPM */
static char * player_idle_bg_xpm[] = {
"48 48 21 1",
" 	c None",
".	c #1C1F2F",
"+	c #1A1C2C",
"@	c #242A3E",
"#	c #2B334A",
"$	c #1A1C2D",
"%	c #202437",
"&	c #2B324A",
"*	c #333C57",
"=	c #1C1E2F",
"-	c #333B56",
";	c #323B56",
">	c #5D275D",
",	c #EF7D57",
"'	c #B13E53",
")	c #3B5DC9",
"!	c #73EFF7",
"~	c #1F2234",
"{	c #2B3249",
"]	c #23293D",
"^	c #2A3148",
"................................................",
"++@##########################################@++",
"$%&******************************************&%$",
"=-********************************************-=",
"=;********************************************;=",
"=;********************************************;=",
"=;********************************************;=",
"=;********************************************;=",
"=;********************************************;=",
"=;*****************>>>>>>>>>>>>***************;=",
"=;*****************>>>>>>>>>>>>***************;=",
"=;*****************>>>>>>>>>>>>***************;=",
"=;*****************>>>>>>>>>>>>***************;=",
"=;***************++>>>>++++++*****************;=",
"=;***************++>>>>++++++*****************;=",
"=;*****************++,,,,'',,*****************;=",
"=;*****************++,,,,'',,*****************;=",
"=;*************))))++,,,,,,,,++***************;=",
"=;*************))))++,,,,,,,,++***************;=",
"=;***********))))))++++++++++++++*************;=",
"=;***********))))))++++++++++++++*************;=",
"=;***********))))++++))))))))++++*************;=",
"=;***********))))++++))))))))++++*************;=",
"=;***********++++++))))!!!!!!++***************;=",
"=;***********++++++))))!!!!!!++***************;=",
"=;***********))++++))))))))))++))*************;=",
"=;***********))++++))))))))))++))*************;=",
"=;***********))))++++++++++++++++*************;=",
"=;***********))))++++++++++++++++*************;=",
"=;***********))))++++))))))))++))*************;=",
"=;***********))))++++))))))))++))*************;=",
"=;***************++++++))))++++))*************;=",
"=;***************++++++))))++++))*************;=",
"=;***************))********))++++*************;=",
"=;***************))********))++++*************;=",
"=;***************++++++++++++*****************;=",
"=;***************++++++++++++*****************;=",
"=;*****************++++++++*******************;=",
"=;*****************++++++++*******************;=",
"=;********************************************;=",
"=;********************************************;=",
"=;********************************************;=",
"=;********************************************;=",
"=;********************************************;=",
"+~{******************************************{~+",
"++]^^^^^^^^^^^^^^^^^^^^^^^^^^^^^^^^^^^^^^^^^^]++",
"++++++++++++++++++++++++++++++++++++++++++++++++",
"                                                "};
