/* XPM */
static char * exit_0_xpm[] = {
"48 48 160 2",
"  	c None",
". 	c #262D41",
"+ 	c #265D43",
"@ 	c #2F9353",
"# 	c #36B060",
"$ 	c #38B563",
"% 	c #38B562",
"& 	c #36AF5F",
"* 	c #2E8E51",
"= 	c #1F2335",
"- 	c #2A3148",
"; 	c #275F45",
"> 	c #2F9455",
", 	c #36B161",
"' 	c #38B764",
") 	c #37B161",
"! 	c #2E8F52",
"~ 	c #212639",
"{ 	c #2B324A",
"] 	c #285F45",
"^ 	c #212739",
"/ 	c #329555",
"( 	c #3EB362",
"_ 	c #47BC65",
": 	c #4ABC65",
"< 	c #49BC65",
"[ 	c #46BB65",
"} 	c #3EB361",
"| 	c #2E8E52",
"1 	c #399755",
"2 	c #54BB64",
"3 	c #6BCB68",
"4 	c #71CE69",
"5 	c #6FCD69",
"6 	c #66C967",
"7 	c #50B962",
"8 	c #2D8E52",
"9 	c #429A56",
"0 	c #6AC666",
"a 	c #8CDE6C",
"b 	c #95E36D",
"c 	c #93E26D",
"d 	c #85D96B",
"e 	c #64C264",
"f 	c #459B56",
"g 	c #74CB67",
"h 	c #9CE86E",
"i 	c #A5EE6F",
"j 	c #A2ED6F",
"k 	c #6DC665",
"l 	c #469C56",
"m 	c #76CC67",
"n 	c #9EE96F",
"o 	c #A7F070",
"p 	c #A4EE70",
"q 	c #6EC765",
"r 	c #A6EF70",
"s 	c #A3ED6F",
"t 	c #A0EB6F",
"u 	c #9FEA6F",
"v 	c #A2ED70",
"w 	c #97E46D",
"x 	c #8ADC6B",
"y 	c #87DA6B",
"z 	c #98E56E",
"A 	c #89DC6B",
"B 	c #6ECC68",
"C 	c #67C967",
"D 	c #8CDE6D",
"E 	c #9FEA6E",
"F 	c #88DB6B",
"G 	c #6ACA68",
"H 	c #63C767",
"I 	c #8BDD6C",
"J 	c #A2EC6F",
"K 	c #95E46D",
"L 	c #85DA6B",
"M 	c #82D86B",
"N 	c #96E46E",
"O 	c #9EEA6F",
"P 	c #A5EE70",
"Q 	c #A0EB6E",
"R 	c #9FEB6F",
"S 	c #A6F070",
"T 	c #94E36D",
"U 	c #93E36D",
"V 	c #A5EF70",
"W 	c #A1EC6F",
"X 	c #91E16D",
"Y 	c #9DE96F",
"Z 	c #A3EE6F",
"` 	c #9DE96E",
" .	c #90E06C",
"..	c #98E66E",
"+.	c #8EDF6C",
"@.	c #97E56E",
"#.	c #75CC67",
"$.	c #9CE96E",
"%.	c #A0EC6F",
"&.	c #9DEA6E",
"*.	c #A1EC70",
"=.	c #98E66D",
"-.	c #272E43",
";.	c #265E43",
">.	c #469B56",
",.	c #72CA66",
"'.	c #93E16C",
").	c #73CE68",
"!.	c #59C166",
"~.	c #7AD169",
"{.	c #96E36D",
"].	c #A3EC6F",
"^.	c #A6EE6F",
"/.	c #94E26C",
"(.	c #6EC665",
"_.	c #2D8D52",
":.	c #202436",
"<.	c #222739",
"[.	c #235A3F",
"}.	c #439552",
"|.	c #6DC162",
"1.	c #8AD668",
"2.	c #5FBE63",
"3.	c #36AE60",
"4.	c #68C264",
"5.	c #8DD869",
"6.	c #9BE26B",
"7.	c #9EE46B",
"8.	c #8ED868",
"9.	c #6ABE61",
"0.	c #2B874F",
"a.	c #1D2031",
"b.	c #1C2930",
"c.	c #204E38",
"d.	c #397E48",
"e.	c #5BA254",
"f.	c #73B459",
"g.	c #509F55",
"h.	c #56A256",
"i.	c #75B55A",
"j.	c #81BC5B",
"k.	c #84BE5C",
"l.	c #81BD5B",
"m.	c #76B559",
"n.	c #589F54",
"o.	c #277446",
"p.	c #1B282E",
"q.	c #235C3D",
"r.	c #235F3E",
"s.	c #276540",
"t.	c #2E6B42",
"u.	c #356F43",
"v.	c #2B6B42",
"w.	c #256942",
"x.	c #2D6B43",
"y.	c #366F43",
"z.	c #3A7143",
"A.	c #3B7243",
"B.	c #367043",
"C.	c #246440",
"                                                                                                ",
"                                                                                                ",
"                                                                                                ",
". + @ # $ $ $ $ $ $ $ $ $ $ $ $ $ $ $ $ $ $ $ $ $ $ $ $ $ $ $ $ $ $ $ $ $ $ $ $ $ $ $ $ % & * = ",
"- ; > , ' ' ' ' ' ' ' ' ' ' ' ' ' ' ' ' ' ' ' ' ' ' ' ' ' ' ' ' ' ' ' ' ' ' ' ' ' ' ' ' ' ) ! ~ ",
"{ ] > , ' ' ' ' ' ' ' ' ' ' ' ' ' ' ' ' ' ' ' ' ' ' ' ' ' ' ' ' ' ' ' ' ' ' ' ' ' ' ' ' ' ) ! ^ ",
"{ ] > , ' ' ' ' ' ' ' ' ' ' ' ' ' ' ' ' ' ' ' ' ' ' ' ' ' ' ' ' ' ' ' ' ' ' ' ' ' ' ' ' ' ) ! ^ ",
"{ ] > , ' ' ' ' ' ' ' ' ' ' ' ' ' ' ' ' ' ' ' ' ' ' ' ' ' ' ' ' ' ' ' ' ' ' ' ' ' ' ' ' ' ) ! ^ ",
"{ ] > , ' ' ' ' ' ' ' ' ' ' ' ' ' ' ' ' ' ' ' ' ' ' ' ' ' ' ' ' ' ' ' ' ' ' ' ' ' ' ' ' ' ) ! ^ ",
"{ ] > , ' ' ' ' ' ' ' ' ' ' ' ' ' ' ' ' ' ' ' ' ' ' ' ' ' ' ' ' ' ' ' ' ' ' ' ' ' ' ' ' ' ) ! ^ ",
"{ ] > , ' ' ' ' ' ' ' ' ' ' ' ' ' ' ' ' ' ' ' ' ' ' ' ' ' ' ' ' ' ' ' ' ' ' ' ' ' ' ' ' ' ) ! ^ ",
"{ ] > , ' ' ' ' ' ' ' ' ' ' ' ' ' ' ' ' ' ' ' ' ' ' ' ' ' ' ' ' ' ' ' ' ' ' ' ' ' ' ' ' ' ) ! ^ ",
"{ ] > , ' ' ' ' ' ' ' ' ' ' ' ' ' ' ' ' ' ' ' ' ' ' ' ' ' ' ' ' ' ' ' ' ' ' ' ' ' ' ' ' ' ) ! ^ ",
"{ ] > , ' ' ' ' ' ' ' ' ' ' ' ' ' ' ' ' ' ' ' ' ' ' ' ' ' ' ' ' ' ' ' ' ' ' ' ' ' ' ' ' ' ) ! ^ ",
"{ ] > , ' ' ' ' ' ' ' ' ' ' ' ' ' ' ' ' ' ' ' ' ' ' ' ' ' ' ' ' ' ' ' ' ' ' ' ' ' ' ' ' ' ) ! ^ ",
"{ ] > , ' ' ' ' ' ' ' ' ' ' ' ' ' ' ' ' ' ' ' ' ' ' ' ' ' ' ' ' ' ' ' ' ' ' ' ' ' ' ' ' ' ) ! ^ ",
"{ ] > , ' ' ' ' ' ' ' ' ' ' ' ' ' ' ' ' ' ' ' ' ' ' ' ' ' ' ' ' ' ' ' ' ' ' ' ' ' ' ' ' ' ) ! ^ ",
"{ ] > , ' ' ' ' ' ' ' ' ' ' ' ' ' ' ' ' ' ' ' ' ' ' ' ' ' ' ' ' ' ' ' ' ' ' ' ' ' ' ' ' ' ) ! ^ ",
"{ ] > , ' ' ' ' ' ' ' ' ' ' ' ' ' ' ' ' ' ' ' ' ' ' ' ' ' ' ' ' ' ' ' ' ' ' ' ' ' ' ' ' ' ) ! ^ ",
"{ ] > , ' ' ' ' ' ' ' ' ' ' ' ' ' ' ' ' ' ' ' ' ' ' ' ' ' ' ' ' ' ' ' ' ' ' ' ' ' ' ' ' ' ) ! ^ ",
"{ ] > , ' ' ' ' ' ' ' ' ' ' ' ' ' ' ' ' ' ' ' ' ' ' ' ' ' ' ' ' ' ' ' ' ' ' ' ' ' ' ' ' ' ) ! ^ ",
"{ ] > , ' ' ' ' ' ' ' ' ' ' ' ' ' ' ' ' ' ' ' ' ' ' ' ' ' ' ' ' ' ' ' ' ' ' ' ' ' ' ' ' ' ) ! ^ ",
"{ ] > , ' ' ' ' ' ' ' ' ' ' ' ' ' ' ' ' ' ' ' ' ' ' ' ' ' ' ' ' ' ' ' ' ' ' ' ' ' ' ' ' ' ) ! ^ ",
"{ ] / ( _ : : : : : : : : : : : : : : : : : : : : : : : : : : : : : : : : : : : : : : < [ } | ^ ",
"{ ] 1 2 3 4 4 4 4 4 4 4 4 4 4 4 4 4 4 4 4 4 4 4 4 4 4 4 4 4 4 4 4 4 4 4 4 4 4 4 4 4 4 5 6 7 8 ^ ",
"{ ] 9 0 a b b b b b b b b b b b b b b b b b b b b b b b b b b b b b b b b b b b b b b c d e 8 ^ ",
"{ ] f g h i i i i i i i i i i i i i i i i i i i i i i i i i i i i i i i i i i i i i i j c k 8 ^ ",
"{ ] l m n o o o o o o o o o o o o o o o o o o o o o o o o o o o o o o o o o o o o o o p b q 8 ^ ",
"{ ] l m n o o o o o o o o o o o o o o o o o o o o o o o o o o o o o o o o o o o o o o p b q 8 ^ ",
"{ ] l m n o o o o o o o o o o o o o o o o o o o o o o o o o o o o o o r s t u s o o o p b q 8 ^ ",
"{ ] l m n o o o o o o o o o o o o o o o o o o o o o o o o o o o o o o v w x y z o o o p b q 8 ^ ",
"{ ] l m n o o o o o o o o o o o o o o o o o o o o o o o o o o o o o o u A B C D r o o p b q 8 ^ ",
"{ ] l m n o o o o o o o o o o o o o o o o o o o o o o o o o o o o o o E F G H I r o o p b q 8 ^ ",
"{ ] l m n o o o o o o o o o o o o o o o o o o o o o o o o o o o o o o J K L M N r o o p b q 8 ^ ",
"{ ] l m n o o o o o o o r r o o o o o o o o o o o o o o o o o o o o o r s u O s o o o p b q 8 ^ ",
"{ ] l m n o o o o o o P Q R S o o o o o o o o o o o o o o o o o o o o o o o o o o o o p b q 8 ^ ",
"{ ] l m n o o o o o o J T U V o o o o o o o o o o o o o o o o o o o o o o o o o o o o p b q 8 ^ ",
"{ ] l m n o o o o o r W X X i o o o o o o o o o o o o S r r o o o o o o o o o o o o o p b q 8 ^ ",
"{ ] l m n o o o o o o p Y Y r o o o o o o o o o o o o Z u W S o o o o o o o o o o o o p b q 8 ^ ",
"{ ] l m n o o o o o o S r r o o o o o o o o o o o o o `  ...V o o o o o o o o o o o o p b q 8 ^ ",
"{ ] l m n o o o o o o o o o o o o o o o o o o o o o o h +.@.i o o o o o o o o o o o o p b q 8 ^ ",
"{ ] l m n S r S o o o o o o o o o o o o o o o o o o o s E W r o o o o o o o o o o o o p b q 8 ^ ",
"{ ] l #.$.%.&.*.P o o o o o o o o o o o o o o o o o o o o o o o o o o o o o o o o o o p b q 8 ^ ",
"- ; l g =.+.d X R r o o o o o o o o o o o o o o o o o o o o o o o o o o o o o o o o o p b q 8 ~ ",
"-.;.>.,.'.).!.~.{.].^.^.^.^.^.^.^.^.^.^.^.^.^.^.^.^.^.^.^.^.^.^.^.^.^.^.^.^.^.^.^.^.^.]./.(._.:.",
"<.[.}.|.1.2.3.4.5.6.7.7.7.7.7.7.7.7.7.7.7.7.7.7.7.7.7.7.7.7.7.7.7.7.7.7.7.7.7.7.7.7.7.6.8.9.0.a.",
"b.c.d.e.f.g.@ h.i.j.k.k.k.k.k.k.k.k.k.k.k.k.k.k.k.k.k.k.k.k.k.k.k.k.k.k.k.k.k.k.k.k.k.l.m.n.o.p.",
"q.r.s.t.u.v.w.x.y.z.A.A.A.A.A.A.A.A.A.A.A.A.A.A.A.A.A.A.A.A.A.A.A.A.A.A.A.A.A.A.A.A.A.z.B.t.C.q."};
