/* XPM */
static char *result[] = {
/* columns rows colors chars-per-pixel */
"48 48 183 2 ",
"   c #6CA238",
".  c #6CA13B",
"X  c #69A03E",
"o  c #6CA13C",
"O  c #6EA33E",
"+  c #6FA43F",
"@  c #70A63D",
"#  c #74AD3E",
"$  c #76B03D",
"%  c #7BB23B",
"&  c #7AB438",
"*  c #78B13E",
"=  c #7AB43D",
"-  c #6C9F43",
";  c #6A9E47",
":  c #6B9F48",
">  c #6E9F50",
",  c #6DA141",
"<  c #6EA340",
"1  c #6EA242",
"2  c #6BA047",
"3  c #6CA144",
"4  c #6DA047",
"5  c #6AA148",
"6  c #6CA148",
"7  c #6DA248",
"8  c #6DA349",
"9  c #6CA04A",
"0  c #6CA14A",
"q  c #6EA34A",
"w  c #6EA34B",
"e  c #6CA04D",
"r  c #70A441",
"t  c #70A544",
"y  c #70A647",
"u  c #73A843",
"i  c #77AD41",
"p  c #76AB45",
"a  c #77AB46",
"s  c #77AC46",
"d  c #77AF46",
"f  c #78AE40",
"g  c #78AE42",
"h  c #78AD44",
"j  c #73A74B",
"k  c #74A74A",
"l  c #77AB4B",
"z  c #77B043",
"x  c #7AB140",
"c  c #7AB243",
"v  c #7CB543",
"b  c #7FB643",
"n  c #7AB144",
"m  c #7AB147",
"M  c #7DB646",
"N  c #80B73E",
"B  c #85BF3D",
"V  c #88C23E",
"C  c #8AC23E",
"Z  c #8AC43F",
"A  c #8DC73C",
"S  c #8CC63D",
"D  c #8CC73D",
"F  c #8DC53F",
"G  c #8DC73E",
"H  c #8CC63F",
"J  c #8CC73F",
"K  c #8DC73F",
"L  c #8BC93A",
"P  c #8DC83C",
"I  c #8EC93C",
"U  c #8EC93D",
"Y  c #8DCA3C",
"T  c #8CC83E",
"R  c #8DC83E",
"E  c #8DC83F",
"W  c #8EC93E",
"Q  c #8EC83F",
"!  c #8EC93F",
"~  c #90C83E",
"^  c #81BB41",
"/  c #82BA42",
"(  c #82BE41",
")  c #85BF41",
"_  c #86BC43",
"`  c #81BA45",
"'  c #83BA44",
"]  c #82B946",
"[  c #85BD44",
"{  c #84BE45",
"}  c #83BC49",
"|  c #89C540",
" . c #8AC741",
".. c #8BC741",
"X. c #8CC540",
"o. c #8DC540",
"O. c #8DC640",
"+. c #8DC740",
"@. c #8CC641",
"#. c #8DC641",
"$. c #8DC741",
"%. c #8EC640",
"&. c #8FC640",
"*. c #8EC740",
"=. c #8EC641",
"-. c #8FC641",
";. c #8DC543",
":. c #8EC542",
">. c #8EC543",
",. c #8CC642",
"<. c #8DC642",
"1. c #8DC742",
"2. c #8DC643",
"3. c #8DC743",
"4. c #8EC642",
"5. c #8FC642",
"6. c #8EC742",
"7. c #8FC742",
"8. c #8EC743",
"9. c #8FC743",
"0. c #8AC344",
"q. c #8BC444",
"w. c #8BC445",
"e. c #8BC744",
"r. c #8BC446",
"t. c #8BC746",
"y. c #8DC544",
"u. c #8FC445",
"i. c #8DC644",
"p. c #8DC744",
"a. c #8CC645",
"s. c #8FC644",
"d. c #8EC744",
"f. c #8EC745",
"g. c #8FC745",
"h. c #8DC446",
"j. c #8DC746",
"k. c #8DC647",
"l. c #8DC747",
"z. c #8FC746",
"x. c #8EC747",
"c. c #8BC840",
"v. c #8BC842",
"b. c #8CC841",
"n. c #8DC841",
"m. c #8EC840",
"M. c #8FC840",
"N. c #8EC940",
"B. c #8EC841",
"V. c #8FC841",
"C. c #8EC941",
"Z. c #8DC842",
"A. c #8DC943",
"S. c #8EC842",
"D. c #8EC942",
"F. c #8EC843",
"G. c #8EC943",
"H. c #8DC844",
"J. c #8EC844",
"K. c #8FC844",
"L. c #8EC845",
"P. c #8DC846",
"I. c #8FC946",
"U. c #88C548",
"Y. c #8BC54B",
"T. c #8DC648",
"R. c #8DC649",
"E. c #8EC648",
"W. c #8DC64A",
"Q. c #8FC64A",
"!. c #8EC74A",
"~. c #8EC74C",
"^. c #8DC84A",
"/. c #90C741",
"(. c #91C741",
"). c #90C742",
"_. c #90C743",
"`. c #90C644",
"'. c #90C744",
"]. c #90C745",
"[. c #90C841",
"{. c #90C64B",
"}. c #8BC452",
/* pixels */
"5.5.5.5.5._._._.5.5.5.5.5.5.5.5.5.O.&._._.5.5.5.5.5.5.5._._._._.5.5.5.5.5.5.5.5._._._._.5.5.5.5.",
"5.5.5.5.5._._._.5.5.5.5.5.5.5.5.W t.L P 4.5.5.5.5.5.5.5._._._._.5.5.5.5.5.5.5.5._._._._.m.}.h.5.",
"5.5.5.5.5.G X /.5.5.5.5.5.5.5.5.P 1.1.p.=.5.5.5.5.5.5.5._._._._.5.5.5.5.5.5.5.5._._._._...1.y.+.",
"5.5.5._.5.6 ~.k F.5.5.5.5.5._._._._._._._._.5.5.5.5.5._._._._._.5.5.5.5.7.5._._._._._._.B._.5.5.",
"_._._._._._.5.s._._._._._._._._._._._._._.+._._._._._._._._._._._._._.M.x R _._._._._._._._._._.",
"_._._._._._._._._._._._._._._._._._._._.< , O _._._._._.f._._._._._._.b z.# _._._._._._._._._._.",
"_._._._._._._._._._._._._._._._._._._._.Z.F.B._._._.c.P.%.-._._._._._._._._._._._._._._._._._._.",
"_._._._._._._._._._._._._._._._._._._._._._._._._._.+.A _.1._._._._._._._._._._._._._._._._._._.",
"5.5.5.7.B._._._._.5.5.5.b.d x._._._._._._._.5.5.5.5.5._._._._._._.5.5.5.5.5._._._._._._._._.5.5.",
"5.5.P !.E [._._.5.5.5.5.% 3.* _._._._.5.5.5.5.5.5.5.5._._._._.F.5.5.5.5.5.5.5.5._._._._._.5.5.5.",
"5.5.1.1.1._._._.5.5.5.5.5.5.5._._._._.5.5.5.5.5.5.5.5.5._._.} 9 [ 5.5.5.5.5.5.5._._._.C.7.5.5.5.",
"5.5.5.5.5._.]._.5.5.5.5.5.5.5._._._._.5.5.5.5.5.5.5.5.5._._.n T v 5.5.5.5.5.5.5._._.%.p.J G 5.5.",
"5.5.5.5._.c e M 1.5.5.5.5.5.5._._._.[.5.5.5.5.5.5.5.5.5._._.9.`.s.5.5.5.5.5.5.5._._.C.*.$.*.5.5.",
"5.5.5.5._.] +._ 5.5.5.5.5.5.5.5.1.I u._._.5.5.5.5.5.5.5._._._._.5.5.5.5.5.5.5.5._._._._._.5.5.5.",
"5.5.5._.5._._._.5.5.5.5.5.5.5.5.&.@.H D 5._.5.5.5.5.5._._._._._.5.5.5.5.5.5.5.5._._._._._.5.5.5.",
"5.5.5._._._._._._.5.5.5.5.5._._._._.'._._._.5.5.5.5.5._._._._._.5.5.5.5.5.+.)._._._._._._._.5.5.",
"_._._._._._._._._._._._._._._._._._._._._._._._._._._.-.r S._._._._._.7.& l h [._._._._._._._._.",
"_._._.)._._._._._._._._._._._._._._._._._._._._._._._.1 R.: _._._._._._.;.F.k._._._._._._._._._.",
"_._.E j.5._._._._._._._._._._._._._._._._._._._._._._._._._._._._._._._._._._._._.A.w S._._._._.",
"_.).Y.<.3._._._._.C.f K._._._._._._._._._._._._._._._._._._._._._._._._._._._._._.7 W., 9._._._.",
"_._._.5.7._._._._.u V.= =._._._._._._._._._._._._._._._._._._._.5._._._._._._._._.9.7.9.9._._._.",
"5.5.5._.5._._._._._._.5.5.5._._._._._._._._.5.5.5.5.5._._._._._.5.5.5.5.5.5._._._._._._._._.5.5.",
"5.5.5.5.5._._._.5.5.5.5.5.5.5.'.3. .! 5.5.5.5.5.5.5.5.5._._._._.5.5.+.2.q.i.5.5._._._._._.5.5.5.",
"5.5.5.5.5._.F =._.5.5.5.5.5.5.1.>.$.K 5.5.5.5.5.5.5.5.5._._._._.5.5.1.m ` ] 5.5._._._._._.5.5.5.",
"5.5.5.5.5.B.P B $.5.5.5.5.5.5._._._._.5.5.5.5.5.5.5.5._._._._._.5.5.5.<.5.5.5.5._._._._._.5.5.5.",
"5.5.5.5.5.[.C._.1.5.5.5.5.5.5._._._._.5.5.5.5.5.{ 0.2._._._._._.5.5.5.5.5.5.5.5._._._._._.5.5.5.",
"5.5.5.5.5._._._.5.5.5.5.5.5.5._._._._.5.5.5.5.5.e.C.a._._._._._.5.5.5.5.5.5.5.5._._._.7.v.+.5.5.",
"5.5.5._._._._._._._.5.5.5.5._._._._._._._._.5._./._._._._._._._._.5.5.5.5.5._._._._._.3 5 o 5.5.",
"_._._._._._._._._._._._._._._._._._._._._._._._._._._._._._._.l._._._._._._._._.'._._.Q.D.{._._.",
"_._._._._.F.F.F._._._._._._._._._._._._._._._._._._._._._._.2 q + _._._._._.! | Z 3._._._._._._.",
"_._._._.F.n.C.U _._._._.w.g r._._._._._._._._._._._._._._._.+.(.#._._._._._._.S.F.]._._._._._._.",
"_._._._._.,.F.J._._._._.$ F.a _._._._._._._._._._._._._._._._._._._._._._._._._._._._._._._._._.",
"5.5.5.5._._._._._.5.5.-.$.1.1._._._._._.H.Q _.5.5.5.5._._._._._._.5.5.5.5.5.5.5._._._._._.5.5.5.",
"5.5.5.5.5._._._.5.5.5.5.5.5.5._._._._.E.$.U.C.5.5.5.5.5._._._._.5.5.5.5.C p V 5._._._._._.5.5.5.",
"5.5.5.5.5._._._.5.5.5.5.5.5.5._._._._.5.X.S F.5.5.5.5.5._._._._.5.5.5.5./ C.z _._._._._._.5.5.5.",
"5.5.5.5.5._._._.5.5.5.5.5.5.5._._._._.5.5.5.5.5.5.5.N 9._._._._.5.5.5.5.-.5.o.5.F._._._._.5.5.5.",
"5.5.5.5.5._._._.5.5.5.5.5.5.5._._._._.5.5.5.5.5.&.  ' 4 8._._._.5.5.5.5.5.5.5.5._._._._._.5.5.5.",
"5.5.5._.i C._._.5.5.5.5.5.5.5._._._._.5.5.5.5.5.5.1.1.[._._._._.5.5.5.5.5.5.5.5._._._._._.5.5.5.",
"5.5.5.; ^ > _._.5.5.5.5.5.5.5._._._._._.5.5.5.5.5.5.5._._._._._.5.5.5.5.5.5.5.5._._._._._.5.5.5.",
"5.5.5._._.I._._._.5.5.5.5.5.5.]._._._._._._.5.5.5.5.5._._._._._.5.5.5.5.5.5.5._._._._.B.t :.5.5.",
"_._._._._._._._._._._._._.N.Y ) /._._._._._._._._._._._._._._._._._._._._._._._._._._.0 L.- _._.",
"_._._._._._._._._._._._._.S.( 3.,._._._._._._._._._._._._._._._._._._._._._._.[._._._.8._._.F._.",
"_._._._._._._._._._._._._._._._._._._._._._._._._._._.3.L._._._._._._._._._._.~ _._._._._._._._.",
"_._._._._._._.g.T.V._._._._._._._._._._._._._._._._.W ^.D d._._._._._._._._.s y 8 6._._._._._._.",
"5.5.5._._._._.j . @ 5.5.5.5._._._._._._._._.5.5.5.5._.G.J._._._._.5.5.5.5._._.9.9._._._._._.5.5.",
"5.5.5._.5._._.[.s.&.5.5.5.5.5._._._._._._._.5.5.5.5.5._._._._._.5.5.5.5.5.5.5.5._._._._._._.5.5.",
"5.5.5.5.5._._._.5.5.5.5.5.5.5._._._._.5.5.5.5.5.5.5.5.5._._._._.5.5.5.5.5.5.5.5._._._._._.5.5.5.",
"5.5.5.5.5._._._.5.5.5.5.5.5.5._._._._.5.5.5.5.5.5.5.5.5._._._._.5.5.5.5.5.5.5.5._._._._._.5.5.5."
};
