/* XPM */
static char * wall_mid_xpm[] = {
"48 48 40 1",
" 	c None",
".	c #566C86",
"+	c #7D96AA",
"@	c #94B0C2",
"#	c #647B93",
"$	c #4C5E78",
"%	c #333C57",
"&	c #45566F",
"*	c #536982",
"=	c #526781",
"-	c #353F59",
";	c #343D58",
">	c #45556F",
",	c #4E627B",
"'	c #556B85",
")	c #465771",
"!	c #3D4A64",
"~	c #37415C",
"{	c #485972",
"]	c #546983",
"^	c #475872",
"/	c #556B84",
"(	c #353F5A",
"_	c #414F69",
":	c #4C5F78",
"<	c #566B85",
"[	c #51657F",
"}	c #4B5D77",
"|	c #343E59",
"1	c #556A84",
"2	c #475871",
"3	c #37425D",
"4	c #495A74",
"5	c #39455F",
"6	c #2A3047",
"7	c #2D354D",
"8	c #3C4A62",
"9	c #465870",
"0	c #46576E",
"a	c #313A53",
"................................................",
"++++++++++++++++++++++++++++++++++++++++++++++++",
"@@@@@@@@@@@@@@@@@@@@@@@@@@@@@@@@@@@@@@@@@@@@@@@@",
"@@@@@@@@@@@@@@@@@@@@@@@@@@@@@@@@@@@@@@@@@@@@@@@@",
"@@@@@@@@@@@@@@@@@@@@@@@@@@@@@@@@@@@@@@@@@@@@@@@@",
"@@@@@@@@@@@@@@@@@@@@@@@@@@@@@@@@@@@@@@@@@@@@@@@@",
"@@@@@@@@@@@@@@@@@@@@@@@@@@@@@@@@@@@@@@@@@@@@@@@@",
"@@@@@@@@@@@@@@@@@@@@@@@@@@@@@@@@@@@@@@@@@@@@@@@@",
"@@@@@@@@@@@@@@@@@@@@@@@@@@@@@@@@@@@@@@@@@@@@@@@@",
"@@@@@@@@@@@@@@@@@@@@@@@@@@@@@@@@@@@@@@@@@@@@@@@@",
"################################################",
"$$$$$$$$$$$$$$$$$$$$$$$$$$$$$$$$$$$$$$$$$$$$$$$$",
"%%%%%%%%%%%%%%%%%%%%%%%%%%%%%%%%%%%%%%%%%%%%%%%%",
"%%%&***************************************=-%%%",
"%;>,.......................................')!%%",
";~'..........................................{-%",
")'...........................................']-",
"^............................................./(",
"^............................................./(",
"^............................................./(",
"^............................................./(",
"^............................................./(",
"^............................................./(",
"^............................................./(",
"^............................................./(",
"^............................................./(",
"^............................................./(",
"^............................................./(",
"^............................................./(",
"^............................................./(",
"^............................................./(",
"^............................................./(",
"^............................................./(",
"^............................................./(",
"^............................................./(",
"^............................................./(",
"^............................................./(",
"^............................................./(",
"^............................................./(",
"^............................................./(",
"^............................................./(",
"^............................................./(",
"^............................................./(",
"_:<..........................................[}|",
"%-1..........................................2%%",
"%%34.......................................'5(%%",
"66789999999999999999999999999999999999999990a766",
"                                                "};
