/* XPM */
static char * wall_r_xpm[] = {
"48 48 27 1",
" 	c None",
".	c #849EB2",
"+	c #94B0C2",
"@	c #8BA6B9",
"#	c #7790A5",
"$	c #1A1C2C",
"%	c #242A3E",
"&	c #2B334A",
"*	c #758DA3",
"=	c #839DB0",
"-	c #566C86",
";	c #1A1C2D",
">	c #202437",
",	c #2B324A",
"'	c #333C57",
")	c #1C1E2F",
"!	c #333B56",
"~	c #323B56",
"{	c #1F2234",
"]	c #2B3249",
"^	c #23293D",
"/	c #2A3148",
"(	c #839DB1",
"_	c #566D86",
":	c #1A1E2C",
"<	c #1A1F2C",
"[	c #1B1F2C",
"                                      .+++++++@#",
"$$%&&&&&&&&&&&&&&&&&&&&&&&&&&&&&&&&&&&*+++++++=-",
";>,'''''''''''''''''''''''''''''''''''*+++++++=-",
")!''''''''''''''''''''''''''''''''''''*+++++++=-",
")~''''''''''''''''''''''''''''''''''''*+++++++=-",
")~''''''''''''''''''''''''''''''''''''*+++++++=-",
")~''''''''''''''''''''''''''''''''''''*+++++++=-",
")~''''''''''''''''''''''''''''''''''''*+++++++=-",
")~''''''''''''''''''''''''''''''''''''*+++++++=-",
")~''''''''''''''''''''''''''''''''''''*+++++++=-",
")~''''''''''''''''''''''''''''''''''''*+++++++=-",
")~''''''''''''''''''''''''''''''''''''*+++++++=-",
")~''''''''''''''''''''''''''''''''''''*+++++++=-",
")~''''''''''''''''''''''''''''''''''''*+++++++=-",
")~''''''''''''''''''''''''''''''''''''*+++++++@#",
")~''''''''''''''''''''''''''''''''''''*+++++++=-",
")~''''''''''''''''''''''''''''''''''''*+++++++=-",
")~''''''''''''''''''''''''''''''''''''*+++++++=-",
")~''''''''''''''''''''''''''''''''''''*+++++++=-",
")~''''''''''''''''''''''''''''''''''''*+++++++=-",
")~''''''''''''''''''''''''''''''''''''*+++++++=-",
")~''''''''''''''''''''''''''''''''''''*+++++++=-",
")~''''''''''''''''''''''''''''''''''''*+++++++=-",
")~''''''''''''''''''''''''''''''''''''*+++++++=-",
")~''''''''''''''''''''''''''''''''''''*+++++++=-",
")~''''''''''''''''''''''''''''''''''''*+++++++=-",
")~''''''''''''''''''''''''''''''''''''*+++++++=-",
")~''''''''''''''''''''''''''''''''''''*+++++++=-",
")~''''''''''''''''''''''''''''''''''''*+++++++=-",
")~''''''''''''''''''''''''''''''''''''*+++++++=-",
")~''''''''''''''''''''''''''''''''''''*+++++++=-",
")~''''''''''''''''''''''''''''''''''''*+++++++=-",
")~''''''''''''''''''''''''''''''''''''*+++++++=-",
")~''''''''''''''''''''''''''''''''''''*+++++++=-",
")~''''''''''''''''''''''''''''''''''''*+++++++=-",
")~''''''''''''''''''''''''''''''''''''*+++++++=-",
")~''''''''''''''''''''''''''''''''''''*+++++++=-",
")~''''''''''''''''''''''''''''''''''''*+++++++=-",
")~''''''''''''''''''''''''''''''''''''*+++++++=-",
")~''''''''''''''''''''''''''''''''''''*+++++++=-",
")~''''''''''''''''''''''''''''''''''''*+++++++=-",
")~''''''''''''''''''''''''''''''''''''*+++++++=-",
")~''''''''''''''''''''''''''''''''''''*+++++++=-",
")~''''''''''''''''''''''''''''''''''''*+++++++=-",
"${]'''''''''''''''''''''''''''''''''''*+++++++=-",
"$$^///////////////////////////////////*+++++++=-",
"$$$$$$$$$$$$$$$$$$$$$$$$$$$$$$$$$$$$$$*+++++++(_",
"::<<[<<<[[[[[[[[[[[[[[[[[[[[[[[[[[[[[[*+++++++=-"};
