/* XPM */
static char * wall_rc_xpm[] = {
"48 48 55 1",
" 	c None",
".	c #637A91",
"+	c #596F88",
"@	c #728A9F",
"#	c #859FB3",
"$	c #7790A5",
"%	c #94B0C2",
"&	c #667D94",
"*	c #566C86",
"=	c #586E87",
"-	c #8CA7B9",
";	c #768FA4",
">	c #87A2B5",
",	c #748DA2",
"'	c #92AEC0",
")	c #6E869C",
"!	c #5E748D",
"~	c #86A0B4",
"{	c #576B82",
"]	c #475872",
"^	c #6D8499",
"/	c #839DB1",
"(	c #3E4B65",
"_	c #333C57",
":	c #37415C",
"<	c #39455F",
"[	c #343E58",
"}	c #4D607A",
"|	c #6F879D",
"1	c #4B5D76",
"2	c #3B4761",
"3	c #4F637D",
"4	c #536983",
"5	c #51657E",
"6	c #44546D",
"7	c #3A4660",
"8	c #43536D",
"9	c #4E617B",
"0	c #43526C",
"a	c #43536C",
"b	c #556A84",
"c	c #404E68",
"d	c #50647E",
"e	c #536882",
"f	c #4F627C",
"g	c #93AFC1",
"h	c #7992A6",
"i	c #485A73",
"j	c #758DA3",
"k	c #839DB0",
"l	c #4C5F79",
"m	c #37425C",
"n	c #566D86",
"o	c #6B8093",
"p	c #465771",
"............................................+@#$",
"%%%%%%%%%%%%%%%%%%%%%%%%%%%%%%%%%%%%%%%%%%%%&*=*",
"%%%%%%%%%%%%%%%%%%%%%%%%%%%%%%%%%%%%%%%%%%%%-;**",
"%%%%%%%%%%%%%%%%%%%%%%%%%%%%%%%%%%%%%%%%%%%%%>,*",
"%%%%%%%%%%%%%%%%%%%%%%%%%%%%%%%%%%%%%%%%%%%%%%'*",
"%%%%%%%%%%%%%%%%%%%%%%%%%%%%%%%%%%%%%%%%%%%%%%'*",
"%%%%%%%%%%%%%%%%%%%%%%%%%%%%%%%%%%%%%%%%%%%%%%'*",
"%%%%%%%%%%%%%%%%%%%%%%%%%%%%%%%%%%%%%%%%%%%%%%'*",
"%%%%%%%%%%%%%%%%%%%%%%%%%%%%%%%%%%%%%%%%%%%%%%'*",
"%%%%%%%%%%%%%%%%%%%%%%%%%%%%%%%%%%%%%%%%%%%%%%'*",
")!!!!!!!!!!!!!!!!!!!!!!!!!!!!!!!!!!!!~%%%%%%%%'*",
"{]]]]]]]]]]]]]]]]]]]]]]]]]]]]]]]]]]]]^/%%%%%%%'*",
"(___:<<<<<<<<<<<<<<<<<<<<<<<<<<<<[___}|%%%%%%%'*",
"(___1****************************2___}|%%%%%%%'*",
"(__34****************************56__}|%%%%%%%'*",
"(78*******************************90_}|%%%%%%%'*",
"(a*********************************b_}|%%%%%%%'*",
"(a*********************************b_}|%%%%%%%'*",
"(a*********************************b_}|%%%%%%%'*",
"(a*********************************b_}|%%%%%%%'*",
"(a*********************************b_}|%%%%%%%'*",
"(a*********************************b_}|%%%%%%%'*",
"(a*********************************b_}|%%%%%%%'*",
"(a*********************************b_}|%%%%%%%'*",
"(a*********************************b_}|%%%%%%%'*",
"(a*********************************b_}|%%%%%%%'*",
"(a*********************************b_}|%%%%%%%'*",
"(a*********************************b_}|%%%%%%%'*",
"(a*********************************b_}|%%%%%%%'*",
"(a*********************************b_}|%%%%%%%'*",
"(a*********************************b_}|%%%%%%%'*",
"(a*********************************b_}|%%%%%%%'*",
"(a*********************************b_}|%%%%%%%'*",
"(a*********************************b_}|%%%%%%%'*",
"(a*********************************b_}|%%%%%%%'*",
"(a*********************************b_}|%%%%%%%'*",
"(a*********************************b_}|%%%%%%%'*",
"(a*********************************b_}|%%%%%%%'*",
"(a*********************************b_}|%%%%%%%'*",
"(a*********************************b_}|%%%%%%%'*",
"(a*********************************b_}|%%%%%%%'*",
"(a*********************************b_}|%%%%%%%'*",
"(a*********************************b_}|%%%%%%%'*",
"(a*********************************b_}|%%%%%%%'*",
"(cd*******************************ef_}|%%%%%%%gh",
"(__*******************************i__}j%%%%%%%k*",
"(__7l****************************cm__}j%%%%%%%/n",
"  op                                  j%%%%%%%k*"};
