/* XPM */
static char *_84d4be060db4c7c98b41a3e79918dc0Dos5GmHZv5pdhI15[] = {
/* columns rows colors chars-per-pixel */
"32 32 150 2 ",
"   c #FFC0CB",
".  c #C3C1C6",
"X  c #63557F",
"o  c #655680",
"O  c #665881",
"+  c #706A7C",
"@  c #6D32CA",
"#  c #6F33CC",
"$  c #5D2BB2",
"%  c #8F899B",
"&  c #82848B",
"*  c #98A4CE",
"=  c #B6B9E2",
"-  c #5D74AD",
";  c #9B9FA6",
":  c #8E999F",
">  c #4C66AD",
",  c #5B60C8",
"<  c #5350A4",
"1  c None",
"2  c #73848D",
"3  c #649BB1",
"4  c #C0DCE7",
"5  c #B8D9E5",
"6  c #7CA7D8",
"7  c #5564A3",
"8  c #517E92",
"9  c #BBD8E5",
"0  c #FEFFFE",
"q  c #F2FAFB",
"w  c #8ECFE3",
"e  c #677ECA",
"r  c #4F53A3",
"t  c #699FB7",
"y  c #DAEBF1",
"u  c white",
"i  c #F1FAFB",
"p  c #8FD6E4",
"a  c #7182D7",
"s  c #5050AA",
"d  c #8E8ED3",
"f  c #C4ADE6",
"g  c #C5ADE6",
"h  c #BEAAE5",
"j  c #9099DC",
"k  c #8466CF",
"l  c #7A51CA",
"z  c #A883DD",
"x  c #A783DD",
"c  c #A783DE",
"v  c #A683DD",
"b  c #A782DA",
"n  c #A978CD",
"m  c #A97BD0",
"M  c #6B29CC",
"N  c #6C29CE",
"B  c #6B28CE",
"V  c #6A29CE",
"C  c #6B26CA",
"Z  c #6F17B4",
"A  c #6F1AB8",
"S  c #6929CB",
"D  c #6828CD",
"F  c #6A28CC",
"G  c #6929CC",
"H  c #6926C8",
"J  c #6F17B3",
"K  c #6E1AB9",
"L  c #68A0CF",
"P  c #BFD3EB",
"I  c #EBE3F6",
"U  c #DFDDF2",
"Y  c #8BBFE1",
"T  c #756DD4",
"R  c #6445CA",
"E  c #60A7C4",
"W  c #B6E1EB",
"Q  c #E2F4F8",
"!  c #D7EFF4",
"~  c #8AD4E4",
"^  c #7285D8",
"/  c #5567BC",
"(  c #43829D",
")  c #6CBED6",
"_  c #81D1E3",
"`  c #81D1E2",
"'  c #7DD0E3",
"]  c #718BD8",
"[  c #41588F",
"{  c #42819D",
"}  c #6ABDD5",
"|  c #7FCFE3",
" . c #7CCFE3",
".. c #7CD0E3",
"X. c #41568F",
"o. c #549AB6",
"O. c #96D4E3",
"+. c #B8E5EF",
"@. c #98D8E7",
"#. c #7183D8",
"$. c #5151AD",
"%. c #6BADC2",
"&. c #85D0E1",
"*. c #86CFE1",
"=. c #81CFE1",
"-. c #7BD0E2",
";. c #6F8FD8",
":. c #5642B1",
">. c #D3ECEF",
",. c #C9EBF1",
"<. c #B2E3EE",
"1. c #94D8E7",
"2. c #7CCFE2",
"3. c #717FD7",
"4. c #5F4AC6",
"5. c #9AC3CA",
"6. c #ADDFE8",
"7. c #ABDFE9",
"8. c #92D6E4",
"9. c #7ECFE3",
"0. c #6F93D7",
"q. c #5240A7",
"w. c #B8D9DF",
"e. c #B3E2EC",
"r. c #9FDBE8",
"t. c #8DD4E3",
"y. c #7DD0E4",
"u. c #737DD9",
"i. c #5B3FB9",
"p. c #C1E1E8",
"a. c #C0E7EF",
"s. c #AEDFE9",
"d. c #99D9E6",
"f. c #7ED0E3",
"g. c #89AEDC",
"h. c #695EC2",
"j. c #93C1DB",
"k. c #89D3E5",
"l. c #6CAFD5",
"z. c #8BC8DE",
"x. c #7CB8DA",
"c. c #ABC7E1",
"v. c #7468C2",
"b. c #524097",
"n. c #4D4A9B",
"m. c #4B3399",
"M. c #4A409A",
"N. c #4C3799",
"B. c #4F3C9C",
"V. c #5A48A6",
/* pixels */
"                                                                ",
"                                                                ",
"                                                                ",
"                                                                ",
"                          . X o O                               ",
"                          + @ # $ %                             ",
"                          & * = - ;                             ",
"                          : > , < 1                             ",
"                        2 3 4 5 6 7                             ",
"                        8 9 0 q w e r                           ",
"                        t y u i p a s                           ",
"                        d f g h j k l                           ",
"                        z x c v b n m                           ",
"                        M N B V C Z A                           ",
"                        S D F G H J K                           ",
"                        L P I U Y T R                           ",
"                        E W Q ! ~ ^ /                           ",
"                        ( ) _ ` ' ] [                           ",
"                        { } |  ...] X.                          ",
"                        o.O.+.@. .#.$.                          ",
"                        %.&.*.=.-.;.:.                          ",
"                        >.,.<.1.2.3.4.                          ",
"                        5.6.7.8.9.0.q.                          ",
"                        w.e.r.t.y.u.i.                          ",
"                        p.a.s.d.f.g.h.                          ",
"                        j.k.l.z.x.c.v.                          ",
"                        b.n.m.M.N.B.V.                          ",
"                                                                ",
"                                                                ",
"                                                                ",
"                                                                ",
"                                                                "
};
