/* XPM */
static char *_ecf273901d941f6d27af8a8255d689cqGfDZloRY5VUoDvB[] = {
/* columns rows colors chars-per-pixel */
"32 32 8 1 ",
"  c #FFC0CB",
". c #F4F4F4",
"X c #5D275D",
"o c #1A1C2C",
"O c #EF7D57",
"+ c #B13E53",
"@ c #3B5DC9",
"# c #73EFF7",
/* pixels */
"                                ",
"                                ",
"                                ",
"                                ",
"                                ",
"                                ",
"                                ",
"                                ",
"                                ",
"                                ",
"                                ",
"                                ",
"                                ",
"                                ",
"                                ",
"                                ",
"                                ",
"           XXXXXXXXXXXX         ",
"           XXXXXXXXXXXX         ",
"           XXXXXXXXXXXX         ",
"           XXXXXXXXXXXX         ",
"         ooXXXXoooooo           ",
"         ooXXXXoooooo           ",
"           ooOOOO++OO           ",
"           ooOOOO++OO           ",
"       @@@@ooOOOOOOOOoo         ",
"       @@@@ooOOOOOOOOoo         ",
"     @@@@@@oooooooooooooo       ",
"     @@@@@@oooooooooooooo       ",
"     @@@@oooo@@@@@@@@oooo       ",
"     @@@@oooo@@@@@@@@oooo       ",
"     oooooo@@@@######oo         ",
"     oooooo@@@@######oo         ",
"     @@oooo@@@@@@@@@@oo@@       ",
"                                ",
"                                ",
"                                ",
"                                ",
"                                ",
"                                ",
};
