/* XPM */
static char *a443bcae242c427988d05d0ffbcd7e68[] = {
/* columns rows colors chars-per-pixel */
"32 32 6 1 ",
"  c black",
". c #030402",
"X c #0A0C11",
"o c #1A1C2C",
"O c #1C1F30",
"+ c #333C57",
/* pixels */
"oooooooooooooooooooooooooooooooo",
"oo++++++++++++++++++++++++++++oo",
"o+                   .       X+o",
"o+                            +o",
"o+                            +o",
"o+                            +o",
"o+                            +o",
"o+                            +o",
"o+                            +o",
"o+                            +o",
"o+                            +o",
"o+                            +o",
"o+                            +o",
"o+                            +o",
"o+                            +o",
"o+                            +o",
"o+                            +o",
"o+                            +o",
"o+                            +o",
"o+                            +o",
"o+                            +o",
"o+                            +o",
"o+                            +o",
"o+                            +o",
"o+                            +o",
"o+                            +o",
"o+                            +o",
"o+                            +o",
"o+                            +o",
"o+                            +o",
"oo++++++++++++++++++++++++++++Oo",
"oooooooooooooooooooooooooooooooo"
};
