/* XPM */
static char *abd12f9a554e486debf4f23d6dbbc00afT8UHuSfgrhoTlTS[] = {
/* columns rows colors chars-per-pixel */
"32 32 5 1 ",
"  c #1A1C2C",
". c #333C57",
"X c #111320",
"o c #0A0B16",
"O c #1C1F30",
/* pixels */
"                                ",
"  ............................  ",
" .       XXXXXXXXXXXXXXXXXXXXX. ",
" . ..... XXXXXXXXXXXXXXXXXXXXX. ",
" . ....o XXXXXXXXXXXXXXXXXXXXX. ",
" . ...oo XXXXXXXXXXXXXXXXXXXXX. ",
" . ..ooo XXXXXXXXXXXXXXXXXXXXX. ",
" . .oooo XXXXXXXXXXXXXXXXXXXXX. ",
" . ooooo       XXXXXXXXXXXXXXX. ",
" . oooo ...... XXXXXXXXXXXXXXX. ",
" . ooo ......o XXXXXXXXXXXXXXX. ",
" . oo ......oo XXXXXXXXXXXXXXX. ",
" . o ......ooo XXXXXXXXXXXXXXX. ",
" .  ......oooo XXXXXXXXXXXXXXX. ",
" . ......ooooo       XXXXXXXXX. ",
" . .....ooooo ...... XXXXXXXXX. ",
" . ....ooooo ......o XXXXXXXXX. ",
" . ...ooooo ......oo XXXXXXXXX. ",
" . ..ooooo ......ooo XXXXXXXXX. ",
" .  ooooo ......oooo XXXXXXXXX. ",
" .X oooo ......ooooo       XXX. ",
" .X ooo ......ooooo ...... XXX. ",
" .X oo ......ooooo ......o XXX. ",
" .X o ......ooooo ......oo XXX. ",
" .X  ......ooooo ......ooo XXX. ",
" .X       ooooo ......oooo XXX. ",
" .XXXXXXX oooo ......ooooo    . ",
" .XXXXXXX ooo ......ooooo ..... ",
" .XXXXXXX oo ......ooooo ...... ",
" .XXXXXXX o ......ooooo ....... ",
"  ............................O ",
"                                "
};
