/* XPM */
static char *_cc0b2e546314c6cdf3fd586a52c3395MYOgPDj9xRfFtWul[] = {
/* columns rows colors chars-per-pixel */
"32 32 7 1 ",
"  c #1A1C2C",
". c #333C57",
"X c #323B56",
"o c #333B56",
"O c #333C56",
"+ c #323B55",
"@ c #1C1F30",
/* pixels */
"                                ",
"  ............................  ",
" .............................. ",
" .......................... ... ",
" .......................... ... ",
" ...X.......  ...........  ..X. ",
" ........... ............ ..... ",
" ........... ............ ..... ",
" ........... ........    ...... ",
" ......    .. ....... ......... ",
" ...... ...  ........ ......... ",
" ...... ............ .......... ",
" ...... ............ .......... ",
" ...... ....................... ",
" .............................. ",
" .............................. ",
" .............................. ",
" ............. ................ ",
" ............  .......... ..... ",
" ..........  ............ ..... ",
" .......... ...........  ...... ",
" .......... .......... ......X. ",
" .......... .........  ......o. ",
" .....     ........... ........ ",
" .... ................  ....... ",
" .... ................. .....X. ",
" ... ................   .....O. ",
" ... ......XXOXXoX...........+. ",
" .. ........................... ",
" .............................. ",
"  ............................@ ",
"                                "
};
