/* XPM */
static char *dd492fa449ad4d778ae3c9b29b11bbc5wRBWz9KKxjgyxkMx[] = {
/* columns rows colors chars-per-pixel */
"32 32 51 1 ",
"  c #FFC0CB",
". c #1A1C2C",
"X c #1A1C2C",
"o c #1A1C2C",
"O c #1A1C2C",
"+ c None",
"@ c #1A1C2C",
"# c #121421",
"$ c #3C4664",
"% c #2D364F",
"& c #333C57",
"* c #4F9380",
"= c #346B5C",
"- c #333C57",
"; c #A7F070",
": c #A7F070",
"> c #333C57",
", c #A7F070",
"< c #9DE06E",
"1 c #C1F798",
"2 c #1E1D2D",
"3 c #1C1C2C",
"4 c #1D1D2D",
"5 c #333C57",
"6 c #D3A8B0",
"7 c #1A1C2C",
"8 c #1B1C2C",
"9 c #333C57",
"0 c #202235",
"q c #333C57",
"w c #A5858F",
"e c #1B1C2C",
"r c #1D1D2D",
"t c #333C57",
"y c #333C57",
"u c #D4A8B0",
"i c #D5A9B1",
"p c #C099A2",
"a c #1A1C2C",
"s c #1A1C2C",
"d c #99808F",
"f c #D5A9B1",
"g c #D5A9B1",
"h c #6E5B68",
"j c #877586",
"k c #D3A8B1",
"l c #1A1C2C",
"z c #DAADB5",
"x c #1A1C2C",
"c c #1A1C2C",
"v c #1A1C2C",
/* pixels */
"                                ",
"            ..                  ",
"            Xo                  ",
"            oO                  ",
"            +O  .               ",
"            +@ .                ",
"         X...#.$$$$$$           ",
"         ...##%&&&&$$$$         ",
"       ***=#%%&&&&&&&&$$$-      ",
"      ;::*=#%&&&&&&&&&&&&>      ",
"      ,::*=#%&&####:&&&<        ",
"       1:*=#&&##.2.::::1        ",
"        :*%#&##2.3.:111:        ",
"       &&&%###2..4.:::::        ",
"      +X&%%%%.2..2#::::         ",
"      .+oX%&5....2##22          ",
"     ......  7..2 8.%9          ",
"      .00o&q   e.r.%&t          ",
"      X00..&y   +X%&.a          ",
"      ss0...&     &&..          ",
"      .o00.+X&    .o&.. l       ",
"       Xo.0.o...  ...&...       ",
"       x..00+.:1   ...&.:1      ",
"       cvXo...::    ....::      ",
"          ....::     ...::      ",
"           .XX::      ..::      ",
"            .o+        ..       ",
"                                ",
"                                ",
"                                ",
"                                ",
"                                "
};
