/* XPM */
static char *_1d0ba13f0db4018b5fe26932a2ea0a3VEFTt5UN0lN4rAeg[] = {
/* columns rows colors chars-per-pixel */
"32 32 41 1 ",
"  c #1A1C2C",
". c #22263A",
"X c #333C57",
"o c #323B56",
"O c #386594",
"+ c #32608F",
"@ c #386693",
"# c #376493",
"$ c #325F8F",
"% c #356292",
"& c #2E5C8C",
"* c #33608F",
"= c #366393",
"- c #366392",
"; c #315F8E",
": c #346190",
"> c #336090",
", c #356291",
"< c #2F5D8D",
"1 c #366493",
"2 c #2D5B8B",
"3 c #305E8E",
"4 c #305D8B",
"5 c #336190",
"6 c #315F8F",
"7 c #333B56",
"8 c #356392",
"9 c #305E8D",
"0 c #346191",
"q c #2F5C8C",
"w c #346291",
"e c #315E8E",
"r c #2F5D8C",
"t c #305D8D",
"y c #333D58",
"u c #333C56",
"i c #305E8C",
"p c #325C8A",
"a c #2B3249",
"s c #2C334B",
"d c #1B1E2F",
/* pixels */
"  ............................  ",
" .XXXXXXXXXXXXXXXXXXXXXXXXXXXX. ",
" XXXXXXXXXXXXXXXXXXXXXXXXXXXXXX ",
" XXXXXXXXXXXXXXXXXXXXXXXXXXXXXX ",
" XXXXXXXXXXXXXXXXXXXXXXXXXXXXXX ",
" XXXoXXXXXXXXXXXXXXXXXXXXXXXXoX ",
" XXXXXXXXXXXXXXXXXXXXXXXXXXXXXX ",
" XXXXXXXXXXXXXXXXXXXXXXXXXXXXXX ",
" XXXXXXXXXXXXXXXXXXXXXXXXXXXXXX ",
" XXXXXXXXXXXXXXXXXXXXXXXXXXXXXX ",
" XXXXXXXXXXXXXXXXXXXXXXXXXXXXXX ",
" XXXXXXXXXXXXXXXXXXXXXXXXXXXXXX ",
" XXXXXXXXXXXXXXXXXXXXXXXXXXXXXX ",
" XXXXXXXXXXXXXXXXXXXXXXXXXXXXXX ",
" XXXXXXXXXXXXXXXXXXXXXXXXXXXXXX ",
" XXXXXXXXXXXXXXXOOO+OOOOOOOXXXX ",
" XXXXXXXXXXXXXOOOO@OOOOOOOOOXXX ",
" XXXXXXXXXXXXOOOO#$OOOOOOOOOXXX ",
" XXXXXXXXXXXOOOO%&*=O-#O;OOOXXX ",
" XXXXXXXXXXXOOOO:>--O,#OOOO<XXX ",
" XXXXXXXXXXXOOO-#1OOOOOOOOO2XXX ",
" XXXXXXXXXXXO-:323$=OOOOOO;4XoX ",
" XXXXXOOO5OOOOOO#>;-6OOOO@<XX7X ",
" XXXOOOOO8OO>OO#&9,OOO03q2;XXXX ",
" XXXOO-#OOOOwO3;+e9<rrt>#XXXXXX ",
" XXXOO8=9O#O#e&3XXXXXXXXXXXXXoX ",
" XXXOOO-%e22q3yXXXXXXXXXXXXXXuX ",
" XXXX*rr&ripouoo7oXXXXXXXXXXXoX ",
" XXXXXXXXXXXXXXXXXXXXXXXXXXXXXX ",
" aXXXXXXXXXXXXXXXXXXXXXXXXXXXXs ",
"  aaaaaaaaaaaaaaaaaaaaaaaaaaaad ",
"                                "
};
