/* XPM */
static char *_0de6bc4ae1447c28e7dbfce11e7ff45[] = {
/* columns rows colors chars-per-pixel */
"32 32 7 1 ",
"  c #1A1C2C",
". c #1C1E2F",
"X c #1C1F30",
"o c #202436",
"O c #222639",
"+ c #323B56",
"@ c #333C57",
/* pixels */
"                                ",
"  @@@@@@@@@@@@@   @@@@@@@@@@@@  ",
" @@@@@@@@@@@@@@@ @@@@@@@@@@@@@@ ",
" @@@@@@@@@@@@@@@ @@@@@@@@@@@@@@ ",
" @@@@@@@@@@@@@@@ @@@@@@@@@@@@@@ ",
" @@@@@@@@@@@@@@@ @@@@@@@@@@@@@@ ",
" @@@@@@@@@@@@@@@ @@@@@@@@@@@@@@ ",
" @@@@@@@@@@@@@@@ @@@@@@@@@@@@@@ ",
" @@@@@@@@@@@@@@@ @@@@@@@@@@@@@@ ",
" @@@@@@@@@@@@@@@ @@@@@@@@@@@@@@ ",
" @@@@@@@@@@@@@@@ @@@@@@@@@@@@@@ ",
" @@@@@@@@@@@@@@@ @@@@@@@@@@@@@@ ",
" @@@@@@@@@@@@@@@ @@@@@@@@@@@@@@ ",
" @@@@@@@@@@@@@@@ @@@@@@@@@@@@@@ ",
" @@@@@@@@@@@@@@@ @@@@@@@@@@@@@o ",
"  @@@@@@@@@@@@@               . ",
"                 +@@@@@@@@@@@@  ",
"  @@@@@@@@@@@@@ +@@@@@@@@@@@@@@ ",
" @@@@@@@@@@@@@@ @@@@@@@@@@@@@@@ ",
" @@@@@@@@@@@@@@ @@@@@@@@@@@@@@@ ",
" @@@@@@@@@@@@@@ @@@@@@@@@@@@@@@ ",
" @@@@@@@@@@@@@@ @@@@@@@@@@@@@@@ ",
" @@@@@@@@@@@@@@ @@@@@@@@@@@@@@@ ",
" @@@@@@@@@@@@@@ @@@@@@@@@@@@@@@ ",
" @@@@@@@@@@@@@@ @@@@@@@@@@@@@@@ ",
" @@@@@@@@@@@@@@ @@@@@@@@@@@@@@@ ",
" @@@@@@@@@@@@@@ @@@@@@@@@@@@@@@ ",
" @@@@@@@@@@@@@@ @@@@@@@@@@@@@@@ ",
" @@@@@@@@@@@@@@ @@@@@@@@@@@@@@@ ",
" @@@@@@@@@@@@@@ @@@@@@@@@@@@@@@ ",
"  @@@@@@@@@@@@OX @@@@@@@@@@@@@  ",
"                                "
};
