/* XPM */
static char *adb06caa513c4bb3854dfc5c40b27bbf[] = {
/* columns rows colors chars-per-pixel */
"32 32 4 1 ",
"  c #1A1C2C",
". c #1C1F30",
"X c #323B56",
"o c #333C57",
/* pixels */
"                                ",
"  oooooooooooooooooooooooooooo  ",
" oooooooooooooooooooooooooooooo ",
" oooooooooooooooooooooooooooooo ",
" oooooooooooooooooooooooooooooo ",
" oooXooooooooooooooooooooooooXo ",
" oooooooooooooooooooooooooooooo ",
" oooooooooooooooooooooooooooooo ",
" oooooooooooooooooooooooooooooo ",
" oooooooooooooooooooooooooooooo ",
" oooooooooooooooooooooooooooooo ",
" oooooooooooooooooooooooooooooo ",
" oooooooooooooooooooooooooooooo ",
" oooooooooooooooooooooooooooooo ",
" oooooooooooooooooooooooooooooo ",
" oooooooooooooooooooooooooooooo ",
" oooooooooooooooooooooooooooooo ",
" oooooooooooooooooooooooooooooo ",
" oooooooooooooooooooooooooooooo ",
" oooooooooooooooooooooooooooooo ",
" oooooooooooooooooooooooooooooo ",
" ooooooooooooooooooooooooooooXo ",
" ooooooooooooooooooooooooooooXo ",
" oooooooooooooooooooooooooooooo ",
" oooooooooooooooooooooooooooooo ",
" ooooooooooooooooooooooooooooXo ",
" oooooooooooooooooooooooooooooo ",
" ooooooooooXXoXXXXoooooooooooXo ",
" oooooooooooooooooooooooooooooo ",
" oooooooooooooooooooooooooooooo ",
"  oooooooooooooooooooooooooooo. ",
"                                "
};
