/* XPM */
static char *_7065210540a4904adaa5aa66b20f8dek0QdmvIVcs5UFYXT[] = {
/* columns rows colors chars-per-pixel */
"32 32 101 2 ",
"   c #1C1F30",
".  c #323B56",
"X  c #577D59",
"o  c #6A9F5A",
"O  c #79BA5C",
"+  c #476158",
"@  c #517358",
"#  c #82C95C",
"$  c #85CF5D",
"%  c #7BBE5C",
"&  c #74B05B",
"*  c #76B45B",
"=  c #3A4957",
"-  c #66975A",
";  c #73AF5B",
":  c #7ABC5C",
">  c #84CE5D",
",  c #7BBD5C",
"<  c #7FC45C",
"1  c #70A95B",
"2  c #445B57",
"3  c #75B25B",
"4  c #89D75D",
"5  c #4B6758",
"6  c #7EC25C",
"7  c #7FC55C",
"8  c #87D25D",
"9  c #7DC15C",
"0  c #89D65D",
"q  c #3B4A57",
"w  c #507158",
"e  c #88D45D",
"r  c #86D15D",
"t  c #5C8559",
"y  c #7ABB5C",
"u  c #577C59",
"i  c #364256",
"p  c #6BA15B",
"a  c #77B75C",
"s  c #63925A",
"d  c #394757",
"f  c #394857",
"g  c #598159",
"h  c #476058",
"j  c #3B4C57",
"k  c #435957",
"l  c #507058",
"z  c #3C4C57",
"x  c #4D6C58",
"c  c #81C95C",
"v  c #83CB5C",
"b  c #76B55B",
"n  c #87D35D",
"m  c #587F59",
"M  c #527559",
"N  c #88D55D",
"B  c #8AD75D",
"V  c #8AD85D",
"C  c #81C85C",
"Z  c #5F8B5A",
"A  c #465F58",
"S  c #384556",
"D  c #63935A",
"F  c #86D05D",
"G  c #83CC5C",
"H  c #80C75C",
"J  c #3E5157",
"K  c #3F5357",
"L  c #567A59",
"P  c #78B75C",
"I  c #699E5A",
"U  c #557959",
"Y  c #70AA5B",
"T  c #486258",
"R  c #517258",
"E  c #7EC35C",
"W  c #618E5A",
"Q  c #84CD5D",
"!  c #82CA5C",
"~  c #6EA65B",
"^  c #65965A",
"/  c #4D6B58",
"(  c #6FA75B",
")  c #71AB5B",
"_  c #455D58",
"`  c #5D8959",
"'  c #5C8759",
"]  c #77B65B",
"[  c #71AC5B",
"{  c #6A9E5A",
"}  c #435A57",
"|  c #4D6A58",
" . c #7CBF5C",
".. c #415657",
"X. c #608D5A",
"o. c #7DC05C",
"O. c #587E59",
"+. c #3D4E57",
"@. c #78B85C",
"#. c #527459",
"$. c #425857",
/* pixels */
"                                                                ",
"      . . . . . . . . . . . . . . . . . . . . . . . . . .       ",
"    . . . . . . . . . . . . . . . . . . . . . . . . . . . .     ",
"  . . . . . . . . . . X o O + . . . . . . . . . . . . . . . .   ",
"  . . . . . . . . . @ # $ % & * = . . . . . . . - ; . . . . .   ",
"  . . . . . . . . . : $ > , < > % 1 2 . . . . . 3 4 . . . . .   ",
"  . . . . . . . . . 5 6 7 : 8 9 0 $ q . . . . . . w . . . . .   ",
"  . . . . . . . . . . . . . 9 e r t . . . . . . . . . . . . .   ",
"  . . . . . . . . . . . . . y # u . . . i p a . . . . . . . .   ",
"  . . . . . . . . . . . . . s 8 d . . . f g . . . h . . . . .   ",
"  . . . . . . . . . . . . j 9 e . . k l . . . . z 9 . . . . .   ",
"  . . . . . . . . . . . x c > v b > n m . . . . n M . . . . .   ",
"  . . . . . . . . . . . # N B 0 4 V C . . . . Z e . . . . . .   ",
"  . . . . . . . . . . A r 0 4 e 4 B B d . . . < r S . . . . .   ",
"  . . . . D . . . # r F 8 B B V V B B G . . . # H J . . . . .   ",
"  . . . K N . . . L 0 $ V B V V B B B P . . L e . . . . . . .   ",
"  . . . I n + . . f < 4 B 4 4 $ B B B n . . 5 5 . . . . . . .   ",
"  . . . U 4 . . . Y T B 4 V B V B V V 0 R . . . . . . . . . .   ",
"  . . . . . . . . E W # Q 0 ; ! N V B B ~ . . . . . . . . . .   ",
"  . . . . . . . . ^ c c 0 B 4 V G 0 B F / . . . . . . . . . .   ",
"  . . . . . . . . . . . . ( n ) . _ 8 4 ` . . . . . . . . . .   ",
"  . . . . . . . . . . . . . . . . . $ 8 ' . . . . . . . . . .   ",
"  . . . . . . . . . 2 7 ] . . . . . 7 ] [ . . . . . . . . . .   ",
"  . . . . . . . . . ! { . . . . . . } r 0 Q | . . . . . . . .   ",
"  . . . . . . . . . $ & T . . . . . . 6 0 F s . . . . . . . .   ",
"  . . . . . . . . * 9 [ . . . . . J $ 0 c  .... . . . . . . .   ",
"  . . . . . . . . . . . . . . . . X.! o.v O.. . . . . . . . .   ",
"  . . . O 7 +.. . . . . . . . . . . @.> #.. . . . . . . . . .   ",
"  . . . . p $.. . . . . . . . . . . . . . . . . . . . . . . .   ",
"    . . . . . . . . . . . . . . . . . . . . . . . . . . . .     ",
"      . . . . . . . . . . . . . . . . . . . . . . . . . .       ",
"                                                                "
};
