/* XPM */
static char *_75508e8850b4635fe64dd348233f46flk6uogMdrqfV00Iv[] = {
/* columns rows colors chars-per-pixel */
"32 32 72 1 ",
"  c #1A1C2C",
". c #1C1F30",
"X c #323B56",
"o c #333C57",
"O c #353F57",
"+ c #354057",
"@ c #394657",
"# c #374258",
"$ c #384358",
"% c #3A4759",
"& c #3B4959",
"* c #3C4959",
"= c #3E4E59",
"- c #41525A",
"; c #42545A",
": c #44575B",
"> c #475B5B",
", c #475C5B",
"< c #485D5B",
"1 c #4A605C",
"2 c #4C635C",
"3 c #4D645C",
"4 c #4F685D",
"5 c #516A5D",
"6 c #526C5D",
"7 c #546F5E",
"8 c #56735E",
"9 c #58755F",
"0 c #5A785F",
"q c #5C7D60",
"w c #608260",
"e c #628561",
"r c #658961",
"t c #678D62",
"y c #6A9263",
"u c #6D9763",
"i c #6F9A63",
"p c #6F9964",
"a c #709B63",
"s c #709C63",
"d c #709B64",
"f c #729E64",
"g c #73A064",
"h c #75A265",
"j c #76A565",
"k c #7AAA66",
"l c #7BAC66",
"z c #7CAE66",
"x c #80B367",
"c c #82B767",
"v c #83B868",
"b c #85BC68",
"n c #8AC369",
"m c #8CC669",
"M c #8FCB6A",
"N c #8FCC6A",
"B c #91CE6B",
"V c #93D16B",
"C c #94D26B",
"Z c #95D46B",
"A c #96D66C",
"S c #97D86C",
"D c #98DA6C",
"F c #9ADD6D",
"G c #9CDF6D",
"H c #9DE26D",
"J c #9FE46D",
"K c #A0E56E",
"L c #A3EB6E",
"P c #A4EB6F",
"I c #A5ED6F",
"U c #A6EF6F",
/* pixels */
"                                ",
"  oooooooooooooooooooooooooooo  ",
" ooooo2CIGLIKHLGfzILIIIIIIPIIHo ",
" ooooo8KIIIILAPICqpBIIIIIIIIIHo ",
" ooooo3FIIIJHKIIIcfbIIIIIIIIIHo ",
" oooXo&cIIIILLIIILIHPIIIIIIIIJo ",
" oooooOuIIIIILIIIIIILIIIIIIIIJo ",
" oooooo<lNDIIIIIIIIILLIIPIIIIHo ",
" oooooo$:;0ZIIHIIIIIIIIIIIIIIHo ",
" o+$Ooo>y3%tHLHJIIIIIIILIIIIIAo ",
" oqu6%O7Mq$1BIPLIIIIIIILIIIIIVo ",
" oFLM6#=6-O*nIIIIIILIIIIIIPIIAo ",
" oIKHj-oOoo%xIIIIIIIIIIIIHIIIBo ",
" oIGAM6oooo#dPLIIIIIIIIIIHILLvo ",
" oIJDJy##==$0FLIIIIIIIIIIDPLKAo ",
" oPIKIx$=wr-=uFPIIIIIIIIIHPKLPo ",
" oVIJIz#-uf>o=eBIIIIIIIIIIILILo ",
" oAIDHyO$:>%oo%uJIKIIIIIIIIIIIo ",
" oBJBFr#ooooo%8nIIIIIIIIIIIIIPo ",
" oDLGLne=oooO5MPIIIIIILPIIIIKDo ",
" oLILIIKy#oo%uJKPIIIIILHIIIILLo ",
" oIIJIIIZ;oo*hHVLIIIIHLvMIIIIIo ",
" oIIJIIIL8oo%rFJPIIIPAKktLIIIIo ",
" oJIIIIIL6ooO>cIIIIIIPIb1nIIIIo ",
" oBIIIIIJ6oooO8SIIPILLIN1wLIIGo ",
" oCILIIIIh#ooo%eCFDABBBj;-MIIbo ",
" oKIDLLIIB3#OO+*5009655,-*vID9o ",
" oIIHZKIIIKmias0=OOOOO%6r,tDd@o ",
" oIICvLIIIIIPIIHk1#ooo*rb4=6-Oo ",
" oABq3gNPIIIIPIIKc:ooo#;3*oOooo ",
"  oooooooooooooooooooooooooooo. ",
"                                "
};
