/* XPM */
static char *_496b8bb51fa4760af27f9e262df2d234GbSwwJpjgNdFQOe[] = {
/* columns rows colors chars-per-pixel */
"32 32 8 1 ",
"  c None",
". c #F4F4F4",
"X c #5D275D",
"o c #1A1C2C",
"O c #EF7D57",
"+ c #B13E53",
"@ c #3B5DC9",
"# c #73EFF7",
/* pixels */
"                                ",
"                                ",
"                                ",
"                                ",
"                                ",
"                                ",
"                                ",
"                                ",
"              ......            ",
"             .XXXXXX.           ",
"             .XXXXXX.           ",
"            .oXXooo.            ",
"            ..oOO+O.            ",
"           .@@oOOOOo.           ",
"          .@@@ooooooo.          ",
"          .@@oo@@@@oo.          ",
"          .ooo@@###o.           ",
"          .@oo@@@@@o@.          ",
"          .@@oooooooo.          ",
"          .@@oo@@@@o@.          ",
"           ..ooo@@oo@.          ",
"            .@....@oo.          ",
"             oooooo             ",
"              oooo              ",
"                                ",
"                                ",
"                                ",
"                                ",
"                                ",
"                                ",
"                                ",
"                                "
};
