/* XPM */
static char *_8a97b5c82da4745bbc73c95ad7f109bA1L6hIL0s88yivcN[] = {
/* columns rows colors chars-per-pixel */
"32 32 7 1 ",
"  c #FFC0CB",
". c #5D275D",
"X c #1A1C2C",
"o c #EF7D57",
"O c #B13E53",
"+ c #3B5DC9",
"@ c #73EFF7",
/* pixels */
"                                ",
"            ............        ",
"            ............        ",
"            ............        ",
"            ............        ",
"          XX....XXXXXX          ",
"          XX....XXXXXX          ",
"            XXooooOOoo          ",
"            XXooooOOoo          ",
"        ++++XXooooooooXX        ",
"        ++++XXooooooooXX        ",
"      ++++++XXXXXXXXXXXXXX      ",
"      ++++++XXXXXXXXXXXXXX      ",
"      ++++XXXX++++++++XXXX      ",
"      ++++XXXX++++++++XXXX      ",
"      XXXXXX++++@@@@@@XX        ",
"      XXXXXX++++@@@@@@XX        ",
"      ++XXXX++++++++++XX++      ",
"      ++XXXX++++++++++XX++      ",
"      ++++XXXXXXXXXXXXXXXX      ",
"      ++++XXXXXXXXXXXXXXXX      ",
"      ++++XXXX++++++++XX++      ",
"      ++++XXXX++++++++XX++      ",
"          XXXXXX++++XXXX++      ",
"          XXXXXX++++XXXX++      ",
"          ++        ++XXXX      ",
"          ++        ++XXXX      ",
"          XXXXXXXXXXXX          ",
"          XXXXXXXXXXXX          ",
"            XXXXXXXX            ",
"            XXXXXXXX            ",
"                                "
};
