/* XPM */
static char *result[] = {
/* columns rows colors chars-per-pixel */
"24 38 7 1 ",
"  c #1A1C2C",
". c #5D275D",
"X c #B13E53",
"o c #EF7D57",
"O c #3B5DC9",
"+ c #73EFF7",
"@ c #FFC0CB",
/* pixels */
"@@@@@............@@@@@@@",
"@@@@@............@@@@@@@",
"@@@@@............@@@@@@@",
"@@@@@............@@@@@@@",
"@@@@@@@      ....  @@@@@",
"@@@@@@@      ....  @@@@@",
"@@@@@@@ooXXoooo  @@@@@@@",
"@@@@@@@ooXXoooo  @@@@@@@",
"@@@@@  oooooooo  OOOO@@@",
"@@@@@  oooooooo  OOOO@@@",
"@@@@@    OOOO  OOOOOO@@@",
"@@@@@    OOOO  OOOOOO@@@",
"@@@@@@@OOOOOOOOOOOOOO@@@",
"@@@@@@@OOOOOOOOOOOOOO@@@",
"@@@@@  ++++++OOOO  @@@@@",
"@@@@@  ++++++OOOO  @@@@@",
"@@@@@  OOOOOOOOOO  @@@@@",
"@@@@@  OOOOOOOOOO  @@@@@",
"@@@@@OO            @@@@@",
"@@@@@OO            @@@@@",
"@@@@@OOOOOOOOOO    @@@@@",
"@@@@@OOOOOOOOOO    @@@@@",
"@@@@@    OOOO      @@@@@",
"@@@@@    OOOO      @@@@@",
"@@@@@OO@@@@@@@@@@  OO@@@",
"@@@@@OO@@@@@@@@@@  OO@@@",
"@@@@@@@@@@@@@@@@@@@@@@@@",
"@@@@@@@@@@@@@@@@@@@@@@@@",
"@@@@@@@@@@@@@@@@@@@@@@@@",
"@@@@@@@@@@@@@@@@@@@@@@@@",
"@@@@@@@@@@@@@@@@@@@@@@@@",
"@@@@@@@@@@@@@@@@@@@@@@@@",
"@@@@@@@@@@@@@@@@@@@@@@@@",
"@@@@@@@@@@@@@@@@@@@@@@@@",
"@@@@@@@@@        @@@@@@@",
"@@@@@@@@@        @@@@@@@",
"@@@@@@@@@@@    @@@@@@@@@",
"@@@@@@@@@@@    @@@@@@@@@"
};
