/* XPM */
static char *result[] = {
/* columns rows colors chars-per-pixel */
"24 38 7 1 ",
"  c #1A1C2C",
". c #5D275D",
"X c #B13E53",
"o c #EF7D57",
"O c #3B5DC9",
"+ c #73EFF7",
"@ c None",
/* pixels */
"@@@@@@@@@@@@@@@@@@@@@@@@",
"@@@@@@@@@@@@@@@@@@@@@@@@",
"@@@@@@@@@@@@@@@@@@@@@@@@",
"@@@@@@@@@@@@@@@@@@@@@@@@",
"@@@@@@@@@@@@@@@@@@@@@@@@",
"@@@@@@@@@@@@@@@@@@@@@@@@",
"@@@@@@@@@@@@@@@@@@@@@@@@",
"@@@@@@@@@@@@@@@@@@@@@@@@",
"@@@@............@@@@@@@@",
"@@@@............@@@@@@@@",
"@@@@............@@@@@@@@",
"@@@@............@@@@@@@@",
"@@@@@@      ....  @@@@@@",
"@@@@@@      ....  @@@@@@",
"@@@@@@ooXXoooo  @@@@@@@@",
"@@@@@@ooXXoooo  @@@@@@@@",
"@@@@  oooooooo  OOOO@@@@",
"@@@@  oooooooo  OOOO@@@@",
"@@              OOOOOO@@",
"@@              OOOOOO@@",
"@@    OOOOOOOO    OOOO@@",
"@@    OOOOOOOO    OOOO@@",
"@@@@  ++++++OOOO      @@",
"@@@@  ++++++OOOO      @@",
"@@    OOOOOOOOOO    OO@@",
"@@    OOOOOOOOOO    OO@@",
"@@                OOOO@@",
"@@                OOOO@@",
"@@OO  OOOOOOOO    OOOO@@",
"@@OO  OOOOOOOO    OOOO@@",
"@@OO    OOOO      @@@@@@",
"@@OO    OOOO      @@@@@@",
"@@    OO@@@@@@@@OO@@@@@@",
"@@    OO@@@@@@@@OO@@@@@@",
"@@@@@@            @@@@@@",
"@@@@@@            @@@@@@",
"@@@@@@@@        @@@@@@@@",
"@@@@@@@@        @@@@@@@@"
};
