/* XPM */
static char *_97b309151aa4fcbc1fd11d1c97e828a0I12LrcBdreo5H39[] = {
/* columns rows colors chars-per-pixel */
"24 38 7 1 ",
"  c #FFC0CB",
". c #5D275D",
"X c #1A1C2C",
"o c #EF7D57",
"O c #B13E53",
"+ c #3B5DC9",
"@ c #73EFF7",
/* pixels */
"                        ",
"                        ",
"                        ",
"                        ",
"                        ",
"                        ",
"                        ",
"                        ",
"        ............    ",
"        ............    ",
"        ............    ",
"        ............    ",
"      XX....XXXXXX      ",
"      XX....XXXXXX      ",
"        XXooooOOoo      ",
"        XXooooOOoo      ",
"    ++++XXooooooooXX    ",
"    ++++XXooooooooXX    ",
"  ++++++XXXXXXXXXXXXXX  ",
"  ++++++XXXXXXXXXXXXXX  ",
"  ++++XXXX++++++++XXXX  ",
"  ++++XXXX++++++++XXXX  ",
"  XXXXXX++++@@@@@@XX    ",
"  XXXXXX++++@@@@@@XX    ",
"  ++XXXX++++++++++XXXX  ",
"  ++XXXX++++++++++XXXX  ",
"  ++++XXXXXXXXXXXXXXXX  ",
"  ++++XXXXXXXXXXXXXXXX  ",
"  ++++XXXX++++++++XX++  ",
"  ++++XXXX++++++++XX++  ",
"      XXXXXX++++XXXX++  ",
"      XXXXXX++++XXXX++  ",
"      ++        ++XXXX  ",
"      ++        ++XXXX  ",
"      XXXXXXXXXXXX      ",
"      XXXXXXXXXXXX      ",
"        XXXXXXXX        ",
"        XXXXXXXX        "
};
