/* XPM */
static char *cfbb62c219aa42f989d23e633dc3c83fG0ZzuzOFE4yG9RsR[] = {
/* columns rows colors chars-per-pixel */
"24 38 7 1 ",
"  c #FFC0CB",
". c #5D275D",
"X c #1A1C2C",
"o c #EF7D57",
"O c #B13E53",
"+ c #3B5DC9",
"@ c #73EFF7",
/* pixels */
"        ............    ",
"        ............    ",
"        ............    ",
"        ............    ",
"      XX....XXXXXX      ",
"      XX....XXXXXX      ",
"        XXooooOOoo      ",
"        XXooooOOoo      ",
"    ++++XXooooooooXX    ",
"    ++++XXooooooooXX    ",
"    ++++++XX++++XXXX    ",
"    ++++++XX++++XXXX    ",
"    ++++++++++++++      ",
"    ++++++++++++++      ",
"      XX++++@@@@@@XX    ",
"      XX++++@@@@@@XX    ",
"      XX++++++++++XX    ",
"      XX++++++++++XX    ",
"      XXXXXXXXXXXX++    ",
"      XXXXXXXXXXXX++    ",
"      XXXX++++++++++    ",
"      XXXX++++++++++    ",
"      XXXXXX++++XXXX    ",
"      XXXXXX++++XXXX    ",
"    ++XX          ++    ",
"    ++XX          ++    ",
"                        ",
"                        ",
"                        ",
"                        ",
"                        ",
"                        ",
"                        ",
"                        ",
"        XXXXXXXX        ",
"        XXXXXXXX        ",
"          XXXX          ",
"          XXXX          "
};
