/* XPM */
static char *_6a34cef4cab4e75cae9fc2c52e813a65jDsxOOXJ7ePWB5Y[] = {
/* columns rows colors chars-per-pixel */
"24 38 7 1 ",
"  c #FFC0CB",
". c #5D275D",
"X c #1A1C2C",
"o c #EF7D57",
"O c #B13E53",
"+ c #3B5DC9",
"@ c #73EFF7",
/* pixels */
"          ............  ",
"          ............  ",
"          ............  ",
"          ............  ",
"        XX....XXXXXX    ",
"        XX....XXXXXX    ",
"          XXooooOOooXX  ",
"          XXooooOOooXX  ",
"    ++++++XXooooooooXXXX",
"    ++++++XXooooooooXXXX",
"  XX++++++XXXXXXXXXXXXXX",
"  XX++++++XXXXXXXXXXXXXX",
"++XX++++XXXX++++++++XX  ",
"++XX++++XXXX++++++++XX  ",
"++++    XX++++@@@@@@XXXX",
"++++    XX++++@@@@@@XXXX",
"++++    XX++++++++++XXXX",
"++++    XX++++++++++XXXX",
"        XXXXXXXXXXXXXX++",
"        XXXXXXXXXXXXXX++",
"        XXXXXXXXXX++XX++",
"        XXXXXXXXXX++XX++",
"        XXXXXXXXXXXXXXXX",
"        XXXXXXXXXXXXXXXX",
"          ++XX  ++      ",
"          ++XX  ++      ",
"                        ",
"                        ",
"                        ",
"                        ",
"                        ",
"                        ",
"                        ",
"                        ",
"          XXXXXXXX      ",
"          XXXXXXXX      ",
"            XXXX        ",
"            XXXX        "
};
