/* XPM */
static char *_89151e16f7e48e6da9fcc674fba24a5PESoLI4j7HlC4Nu7[] = {
/* columns rows colors chars-per-pixel */
"32 32 75 1 ",
"  c #1A1C2C",
". c #1C1F30",
"X c #323B56",
"o c #333C57",
"O c #353F57",
"+ c #354057",
"@ c #364058",
"# c #384358",
"$ c #3A4759",
"% c #3B4959",
"& c #3C4959",
"* c #3E4D59",
"= c #41525A",
"- c #42545A",
"; c #44575B",
": c #475B5B",
"> c #475C5B",
", c #485D5B",
"< c #4A5F5C",
"1 c #4A605C",
"2 c #4C635C",
"3 c #4D645C",
"4 c #516B5D",
"5 c #526C5D",
"6 c #546F5E",
"7 c #56735E",
"8 c #57745F",
"9 c #58765E",
"0 c #5A785F",
"q c #5C7D60",
"w c #5F8160",
"e c #618361",
"r c #638661",
"t c #648961",
"y c #678D62",
"u c #688E62",
"i c #6A9263",
"p c #6B9463",
"a c #6D9763",
"s c #6F9A63",
"d c #6F9964",
"f c #709B63",
"g c #739F64",
"h c #73A064",
"j c #74A165",
"k c #76A565",
"l c #78A765",
"z c #7AAA66",
"x c #7BAC66",
"c c #7DAE66",
"v c #7FB267",
"b c #80B367",
"n c #82B767",
"m c #83B868",
"M c #84BA68",
"N c #86BE68",
"B c #8AC369",
"V c #8BC569",
"C c #8CC669",
"Z c #8FCB6A",
"A c #8FCC6A",
"S c #91CE6B",
"D c #93D16B",
"F c #94D26B",
"G c #95D46B",
"H c #96D66C",
"J c #98DA6C",
"K c #9ADD6D",
"L c #9CDF6D",
"P c #9DE26D",
"I c #9FE46D",
"U c #A0E56E",
"Y c #A3EB6E",
"T c #A4EB6F",
"R c #A5ED6F",
/* pixels */
"                                ",
"  oooooooooooooooooooooooooooo  ",
" ooooo2FRLYRUPYLgcRYRTDr@oooooo ",
" ooooo7URRRRYHTRFqdSRRRV-oooooo ",
" ooooo3KRRRIPURRRngNRYSr$oooooo ",
" oooXo%nRRRRYYRRRYRPYDq$oooooXo ",
" oooooOaRRRRRYRRRRRRPk;oooooooo ",
" oooooo,xAJRRRRRRRRRLu&ooooooOo ",
" oooooo#;-0GRRPRRRRYB5$oooooooo ",
" o+#Ooo:i3$yPYPIRRKj:O@Oooooooo ",
" oqa5$O6Zq#1SRTYTDe@ooOOOooo@,o ",
" oKYZ5@*5=O&BRRUB7+oooooooo%jPo ",
" oRUPk=oOoo$cHBa:Ooooooooo$jTRo ",
" oRLHZ5oooo@73&@ooooooooo@rYRRo ",
" oRIJIi@@**+@oooooooooooo:ZRRRo ",
" oTRURb#*w7@ooooooOOooooO7KRRUo ",
" oDTPUl@=i0+oooo$4uw*ooo@yIRRTo ",
" oSHzp3O@-=OooO=ySYK9Oo@5VRRRTo ",
" op5%@Ooooo@$@<vUTRA3oO5NURRRTo ",
" o&ooooooO:rdaBRRRS0$o@=qmPRUJo ",
" oooooooo:zKUURRRPq@ooooO,kKYYo ",
" oo*75&oO8KACRRRUg%oooOooo<MTRo ",
" o$aKD7oo=05rKKNt*oo$<3&oo#yURo ",
" o>ZRIqooOOO&63$Ooo$9NSr$oO7PRo ",
" o=hSg=O&%oooOooooo<MIUDt-@4KLo ",
" o+=,%o1it@oooooo@@7ZKTRUv;tYDo ",
" ooooo$mIS3@OOO@*8raSPRRRYSPRIo ",
" ooooo4PRRUCsfs95ZPIPYRRRRRRRYo ",
" ooooOgRRRRRTRRLvSRRRRRRRRRRRBo ",
" ooooOtATRRRRTRRUVNFDJYPHIJBj,o ",
"  oooooooooooooooooooooooooooo. ",
"                                "
};
