/* XPM */
static char *_46d44531c30442d9c8aacf03c8816d797DtQuIwErn4riYG[] = {
/* columns rows colors chars-per-pixel */
"32 32 112 2 ",
"   c #1A1C2C",
".  c #22263A",
"X  c #333C57",
"o  c #849DB0",
"O  c #94B0C2",
"+  c #93AFC1",
"@  c #8DA8BC",
"#  c #92AEC0",
"$  c #323B56",
"%  c #AFB7AF",
"&  c #FACC79",
"*  c #B8BAA8",
"=  c #758EA4",
"-  c #7990A4",
";  c #8097A9",
":  c #FCCC76",
">  c #FFCD75",
",  c #FCCB76",
"<  c #586879",
"1  c #5A697A",
"2  c #59697A",
"3  c #6B8195",
"4  c #6E8295",
"5  c #576677",
"6  c #665744",
"7  c #FDCC74",
"8  c #806B4C",
"9  c #5B6B7E",
"0  c #74899E",
"q  c #64768D",
"w  c #566C86",
"e  c #7F99AE",
"r  c #425168",
"t  c #24293B",
"y  c #3F4C67",
"u  c #8CA6B8",
"i  c #8FA9BB",
"p  c #8FAABC",
"a  c #90ABBD",
"s  c #91ACBE",
"d  c #F7C876",
"f  c #F8C976",
"g  c #5C6F86",
"h  c #F3C676",
"j  c #EFC476",
"k  c #586D86",
"l  c #A76578",
"z  c #9D596D",
"x  c #9B596D",
"c  c #5D7085",
"v  c #576C86",
"b  c #A26377",
"n  c #A46377",
"m  c #8E495E",
"M  c #667D95",
"N  c #384459",
"B  c #8D7551",
"V  c #394559",
"C  c #607790",
"Z  c #61758B",
"A  c #252A3C",
"S  c #AB9D7E",
"D  c #596E86",
"F  c #374358",
"G  c #374357",
"H  c #384358",
"J  c #354055",
"K  c #6B839A",
"L  c #72889A",
"P  c #282E41",
"I  c #5B6E85",
"U  c #8FAABD",
"Y  c #90ACBE",
"T  c #90ABBE",
"R  c #93AEC1",
"E  c #91ADBF",
"W  c #8EA9BC",
"Q  c #647B93",
"!  c #728AA1",
"~  c #576D86",
"^  c #5C6F85",
"/  c #FBCB75",
"(  c #FDCC75",
")  c #2B3149",
"_  c #556A84",
"`  c #546A84",
"'  c #272C42",
"]  c #2E374A",
"[  c #4E617A",
"{  c #50647C",
"}  c #556B85",
"|  c #536881",
" . c #52677F",
".. c #526780",
"X. c #52667F",
"o. c #536982",
"O. c #566B85",
"+. c #1D2031",
"@. c #1C1E2F",
"#. c #2F384C",
"$. c #30384E",
"%. c #202336",
"&. c #1E2133",
"*. c #22273A",
"=. c #1C1F30",
"-. c #202437",
";. c #2D354D",
":. c #2B3249",
">. c #2C334B",
",. c #252A3F",
"<. c #292F45",
"1. c #1B1E2F",
/* pixels */
"    . . . . . . . . . . . . . . . . . . . . . . . . . . . .     ",
"  . X X X X X X X X o o o o o o o o X X X X X X X X X X X X .   ",
"  X X X X X X X X X O O O O O O O O X X X X X X X X X X X X X   ",
"  X X X X X X X X + O O O O O O O O @ X X X X X X X X X X X X   ",
"  X X X X X X X # O O O O O O O O O O O X X X X X X X X X X X   ",
"  X X X $ X X X O % & * O O O O O O O O = X X X X X X X X $ X   ",
"  X X X X X X - ; : > , < 1 1 1 1 2 1 ; 3 X X X X X X X X X X   ",
"  X X X X X X 4 5 6 7 8               5 9 X X X X X X X X X X   ",
"  X X X X X X 0 5                     5 q X X X X X X X X X X   ",
"  X X X X X X 0 5                     5 q X X X X X X X X X X   ",
"  X X X X X X 0 5                     5 q X X X X X X X X X X   ",
"  X X w w w w e 5                     5 = w r t w w w w w y X   ",
"  X X w w w w e 5                     5 = w r t w w w w w y X   ",
"  X X w w w w e u i u p p p a s s s s u = w r t w w d f g y X   ",
"  X X w h j k e O O O O O O O O O l z x = w r t w w > > c y X   ",
"  X X w > > v = = = = = = = = = = b n m M w r t w w > > c y X   ",
"  X X N B B V N N = = = = = = = = = C M = Z A t w w S S D y X   ",
"  X X F N G H J # O O O O O O O O O K = O L P t D I w w w y X   ",
"  X X w w w w w U # Y T R + + E Y W Q K e ! w ~ > > w w w y X   ",
"  X X w w w w w w w w w w w w w w w w w w w w ^ / ( w w w y X   ",
"  X X w w w w w w w w w w w w w w w w w w w w w w w w w w y X   ",
"  X X                                                     ) X   ",
"  X X   X X _ w w w w ` X X X X X X X X ' ] [         { t ) X   ",
"  X X   X X } w w w w w X X X X X X X X ' ] |  . ...X.o.t ) X   ",
"  X X   X X } w w w w O.X X X X X X X X ' +.t t t t t t @.) X   ",
"  X X   X X #.] ] ] ] $.X X X X X X X X ' %.) ) ) ) ) ) +.) X   ",
"  X X   X X &.        *.X X X X X X X X ' *.X X X X X X &.) X   ",
"  X X   ' ' =.        &.' ' ' ' ' ' ' ' -.&.' ' ' ' ' ' =.) X   ",
"  X X *.*.*.*.+.                        &.*.*.*.*.*.*.*.*.;.X   ",
"  :.X X X X X *.                        ' X X X X X X X X X >.  ",
"    :.:.:.:.:.,.&.&.&.&.&.&.&.&.&.&.&.&.<.:.:.:.:.:.:.:.:.:.1.  ",
"                                                                "
};
