/* XPM */
static char *_b9f82810663457afaaf2bc3ef6c1f03oxiGsU6kzxo58Zzy[] = {
/* columns rows colors chars-per-pixel */
"32 32 6 1 ",
"  c black",
". c #333C57",
"X c #404E69",
"o c #556A84",
"O c #566C86",
"+ c #94B0C2",
/* pixels */
"+++++++O                        ",
"+++++++O                        ",
"+++++++O                        ",
"+++++++O                        ",
"+++++++O                        ",
"++++++OO                        ",
"+++++OOO                        ",
"OOOOOOOO                        ",
"...XoOOO                        ",
"...OOOOO                        ",
"..OOoOOO                        ",
".OOOoOOO                        ",
".OOOOOOO                        ",
".OOOOOOO                        ",
".OOOOOOO                        ",
".OOOOOOO                        ",
".OOOOOOO                        ",
".OOOOOOO                        ",
".OOOOOOO                        ",
".OOOOOOO                        ",
".OOOOOOO                        ",
".OOOOOOO                        ",
".OOOOOOO                        ",
".OOOOOOO                        ",
".OOOOOOO                        ",
".OOOOOOO                        ",
".OOOOOOO                        ",
".OOOOOOO                        ",
".OOOOOOO                        ",
".OOOOOOO                        ",
"..OOOOO                         ",
"...OOO                          "
};
