/* XPM */
static char *b45ded661937494be89fe9aa5c08549dCXtDB9reOhXAYDIx[] = {
/* columns rows colors chars-per-pixel */
"32 32 3 1 ",
"  c black",
". c #566C86",
"X c #94B0C2",
/* pixels */
".XXXXXX.                        ",
".XXXXXX.                        ",
".XXXXXX.                        ",
".XXXXXX.                        ",
".XXXXXX.                        ",
".XXXXXX.                        ",
".XXXXXX.                        ",
".XXXXXX.                        ",
".XXXXXX.                        ",
".XXXXXX.                        ",
".XXXXXX.                        ",
".XXXXXX.                        ",
".XXXXXX.                        ",
".XXXXXX.                        ",
".XXXXXX.                        ",
".XXXXXX.                        ",
".XXXXXX.                        ",
".XXXXXX.                        ",
".XXXXXX.                        ",
".XXXXXX.                        ",
".XXXXXX.                        ",
".XXXXXX.                        ",
".XXXXXX.                        ",
".XXXXXX.                        ",
".XXXXXX.                        ",
".XXXXXX.                        ",
".XXXXXX.                        ",
".XXXXXX.                        ",
".XXXXXX.                        ",
".XXXXXX.                        ",
".XXXXXX.                        ",
".XXXXXX.                        "
};
