/* XPM */
static char *ee149ea6c78a468cf0e9920c4fc8e1b3gdTbkIpD0IOjmkaO[] = {
/* columns rows colors chars-per-pixel */
"32 32 11 1 ",
"  c black",
". c #141920",
"X c #333C57",
"o c #4C5A64",
"O c #425368",
"+ c #4A5C73",
"@ c #4D6178",
"# c #546A83",
"$ c #556B84",
"% c #566C86",
"& c #94B0C2",
/* pixels */
"%%%%%#O.                        ",
"&&&&&%@o                        ",
"&&&&&&#+                        ",
"&&&&&&&$                        ",
"&&&&&&&%                        ",
"&&&&&&&%                        ",
"&&&&&&&%                        ",
"&&&&&&&%                        ",
"&&&&&&&%                        ",
"%&&&&&&%                        ",
"%&&&&&&%                        ",
"%&&&&&&%                        ",
"%&&&&&&%                        ",
"%&&&&&&%                        ",
"%&&&&&&%                        ",
"%&&&&&&%                        ",
"%&&&&&&%                        ",
"%&&&&&&%                        ",
"%&&&&&&%                        ",
"%&&&&&&%                        ",
"%&&&&&&%                        ",
"%&&&&&&%                        ",
"%&&&&&&%                        ",
"%&&&&&&%                        ",
"%&&&&&&%                        ",
"%&&&&&&%                        ",
"%&&&&&&%                        ",
"%&&&&&&%                        ",
"%&&&&&&%                        ",
"%&&&&&&%                        ",
"%&&&&&&%                        ",
"%&&&&&&X                        "
};
