/* XPM */
static char *_1fd6dcae61049b8fde5a4a3d7bfded4FbDVA1DEzWLRC7jl[] = {
/* columns rows colors chars-per-pixel */
"32 32 107 2 ",
"   c #323B56",
".  c #849DB0",
"X  c #94B0C2",
"o  c #93AFC1",
"O  c #8DA8BC",
"+  c #92AEC0",
"@  c #AFB7AF",
"#  c #FACC79",
"$  c #B8BAA8",
"%  c #758EA4",
"&  c #7990A4",
"*  c #8097A9",
"=  c #FCCC76",
"-  c #FFCD75",
";  c #FCCB76",
":  c #586879",
">  c #5A697A",
",  c #59697A",
"<  c #6B8195",
"1  c #6E8295",
"2  c #576677",
"3  c #665744",
"4  c #FDCC74",
"5  c #806B4C",
"6  c #1A1C2C",
"7  c #5B6B7E",
"8  c #74899E",
"9  c #64768D",
"0  c #566C86",
"q  c #7F99AE",
"w  c #425168",
"e  c #24293B",
"r  c #3F4C67",
"t  c #8CA6B8",
"y  c #8FA9BB",
"u  c #8FAABC",
"i  c #90ABBD",
"p  c #91ACBE",
"a  c #F7C876",
"s  c #F8C976",
"d  c #5C6F86",
"f  c #F3C676",
"g  c #EFC476",
"h  c #586D86",
"j  c #A76578",
"k  c #9D596D",
"l  c #9B596D",
"z  c #5D7085",
"x  c #576C86",
"c  c #A26377",
"v  c #A46377",
"b  c #8E495E",
"n  c #667D95",
"m  c #384459",
"M  c #8D7551",
"N  c #394559",
"B  c #607790",
"V  c #61758B",
"C  c #252A3C",
"Z  c #AB9D7E",
"A  c #596E86",
"S  c #374358",
"D  c #374357",
"F  c #384358",
"G  c #354055",
"H  c #6B839A",
"J  c #72889A",
"K  c #282E41",
"L  c #5B6E85",
"P  c #8FAABD",
"I  c #90ACBE",
"U  c #90ABBE",
"Y  c #93AEC1",
"T  c #91ADBF",
"R  c #8EA9BC",
"E  c #647B93",
"W  c #728AA1",
"Q  c #576D86",
"!  c #5C6F85",
"~  c #FBCB75",
"^  c #FDCC75",
"/  c #2B3149",
"(  c #556A84",
")  c #546A84",
"_  c #272C42",
"`  c #2E374A",
"'  c #4E617A",
"]  c #50647C",
"[  c #556B85",
"{  c #536881",
"}  c #52677F",
"|  c #526780",
" . c #52667F",
".. c #536982",
"X. c #566B85",
"o. c #1D2031",
"O. c #1C1E2F",
"+. c #2F384C",
"@. c #30384E",
"#. c #202336",
"$. c #1E2133",
"%. c #22273A",
"&. c #1C1F30",
"*. c #202437",
"=. c #2D354D",
"-. c #252A3F",
";. c #292F45",
/* pixels */
"                                                                ",
"                    . . . . . . . .                             ",
"                    X X X X X X X X                             ",
"                  o X X X X X X X X O                           ",
"                + X X X X X X X X X X X                         ",
"                X @ # $ X X X X X X X X %                       ",
"              & * = - ; : > > > > , > * <                       ",
"              1 2 3 4 5 6 6 6 6 6 6 6 2 7                       ",
"              8 2 6 6 6 6 6 6 6 6 6 6 2 9                       ",
"              8 2 6 6 6 6 6 6 6 6 6 6 2 9                       ",
"              8 2 6 6 6 6 6 6 6 6 6 6 2 9                       ",
"      0 0 0 0 q 2 6 6 6 6 6 6 6 6 6 6 2 % 0 w e 0 0 0 0 0 r     ",
"      0 0 0 0 q 2 6 6 6 6 6 6 6 6 6 6 2 % 0 w e 0 0 0 0 0 r     ",
"      0 0 0 0 q t y t u u u i p p p p t % 0 w e 0 0 a s d r     ",
"      0 f g h q X X X X X X X X X j k l % 0 w e 0 0 - - z r     ",
"      0 - - x % % % % % % % % % % c v b n 0 w e 0 0 - - z r     ",
"      m M M N m m % % % % % % % % % B n % V C e 0 0 Z Z A r     ",
"      S m D F G + X X X X X X X X X H % X J K e A L 0 0 0 r     ",
"      0 0 0 0 0 P + I U Y o o T I R E H q W 0 Q - - 0 0 0 r     ",
"      0 0 0 0 0 0 0 0 0 0 0 0 0 0 0 0 0 0 0 0 ! ~ ^ 0 0 0 r     ",
"      0 0 0 0 0 0 0 0 0 0 0 0 0 0 0 0 0 0 0 0 0 0 0 0 0 0 r     ",
"      6 6 6 6 6 6 6 6 6 6 6 6 6 6 6 6 6 6 6 6 6 6 6 6 6 6 /     ",
"      6     ( 0 0 0 0 )                 _ ` ' 6 6 6 6 ] e /     ",
"      6     [ 0 0 0 0 0                 _ ` { } } |  ...e /     ",
"      6     [ 0 0 0 0 X.                _ o.e e e e e e O./     ",
"      6     +.` ` ` ` @.                _ #./ / / / / / o./     ",
"      6     $.6 6 6 6 %.                _ %.            $./     ",
"      6 _ _ &.6 6 6 6 $._ _ _ _ _ _ _ _ *.$._ _ _ _ _ _ &./     ",
"      %.%.%.%.o.6 6 6 6 6 6 6 6 6 6 6 6 $.%.%.%.%.%.%.%.%.=.    ",
"              %.6 6 6 6 6 6 6 6 6 6 6 6 _                       ",
"              -.$.$.$.$.$.$.$.$.$.$.$.$.;.                      ",
"                                                                "
};
