/* XPM */
static char *be3f047031324993f3ef839238a75ec0qlFStg0vGARl6wFV[] = {
/* columns rows colors chars-per-pixel */
"32 32 3 1 ",
"  c black",
". c #566C86",
"X c #94B0C2",
/* pixels */
"                        .XXXXXX.",
"                        .XXXXXX.",
"                        .XXXXXX.",
"                        .XXXXXX.",
"                        .XXXXXX.",
"                        .XXXXXX.",
"                        .XXXXXX.",
"                        .XXXXXX.",
"                        .XXXXXX.",
"                        .XXXXXX.",
"                        .XXXXXX.",
"                        .XXXXXX.",
"                        .XXXXXX.",
"                        .XXXXXX.",
"                        .XXXXXX.",
"                        .XXXXXX.",
"                        .XXXXXX.",
"                        .XXXXXX.",
"                        .XXXXXX.",
"                        .XXXXXX.",
"                        .XXXXXX.",
"                        .XXXXXX.",
"                        .XXXXXX.",
"                        .XXXXXX.",
"                        .XXXXXX.",
"                        .XXXXXX.",
"                        .XXXXXX.",
"                        .XXXXXX.",
"                        .XXXXXX.",
"                        .XXXXXX.",
"                        .XXXXXX.",
"                        .XXXXXX."
};
