/* XPM */
static char *_43c7b9bce1b4096c44260258377b1d8kEHjdh6X9n13JDU0[] = {
/* columns rows colors chars-per-pixel */
"32 64 144 2 ",
"   c #FFC0CB",
".  c #1D1F30",
"X  c #1E2132",
"o  c #212435",
"O  c #252B36",
"+  c #232738",
"@  c #252A3B",
"#  c #2F393E",
"$  c #2E364A",
"%  c #2E384C",
"&  c #323C4C",
"*  c #303B51",
"=  c #3C4C47",
"-  c #344158",
";  c #3B4B65",
":  c #3E4F69",
">  c #3F506A",
",  c #42554B",
"<  c #4A6151",
"1  c #536F57",
"2  c #546F58",
"3  c #557158",
"4  c #58755A",
"5  c #5E7F5F",
"6  c #42536D",
"7  c #455A6C",
"8  c #495E6E",
"9  c #455670",
"0  c #475972",
"q  c #485973",
"w  c #4E646D",
"e  c #5C7966",
"r  c #476572",
"t  c #4D6373",
"y  c #466B72",
"u  c #4C6F75",
"i  c #4F617A",
"p  c #516773",
"a  c #516B73",
"s  c #51647D",
"d  c #4A7474",
"f  c #477A71",
"g  c #4E7D77",
"h  c #527274",
"j  c #5A7672",
"k  c #5B7872",
"l  c #43966D",
"z  c #458670",
"x  c #4B8174",
"c  c #4A8A74",
"v  c #4A9473",
"b  c #608260",
"n  c #628272",
"m  c #6B9172",
"M  c #709972",
"N  c #48A767",
"B  c #4BA967",
"V  c #4CAC6B",
"C  c #52AE68",
"Z  c #4EB06F",
"A  c #56B268",
"S  c #5FB969",
"D  c #4EA976",
"F  c #50A077",
"G  c #54A37B",
"H  c #57AD7C",
"J  c #4FB271",
"K  c #51B673",
"L  c #54B976",
"P  c #58B67D",
"I  c #56BD79",
"U  c #58BE7C",
"Y  c #64BC6A",
"T  c #7CAD71",
"R  c #7FB171",
"E  c #57C27C",
"W  c #5AC37D",
"Q  c #70C66B",
"!  c #73C96B",
"~  c #7ACD6C",
"^  c #65CB77",
"/  c #6ACE76",
"(  c #64CA78",
")  c #6CCE79",
"_  c #6FD07A",
"`  c #79D676",
"'  c #7ED973",
"]  c #74D279",
"[  c #80B371",
"{  c #83B871",
"}  c #88BF71",
"|  c #83D56D",
" . c #87D86D",
".. c #89C271",
"X. c #82DB77",
"o. c #93D371",
"O. c #8CE26F",
"+. c #94E46F",
"@. c #9BE96F",
"#. c #8FE372",
"$. c #94E670",
"%. c #9EE270",
"&. c #97E870",
"*. c #9CEA71",
"=. c #A0EB6F",
"-. c #A4EE70",
";. c #A6F070",
":. c #566A82",
">. c #596E85",
",. c #5D7289",
"<. c #61768D",
"1. c #63798F",
"2. c #667C92",
"3. c #6C8399",
"4. c #71899E",
"5. c #758DA3",
"6. c #7695AA",
"7. c #7A92A8",
"8. c #7D9AAD",
"9. c #7E9CB0",
"0. c #829CAF",
"q. c #829DB2",
"w. c #84A2B5",
"e. c #83A1B4",
"r. c #89A4B7",
"t. c #88A5B8",
"y. c #89A6B9",
"u. c #8AA7BA",
"i. c #8AA5B8",
"p. c #8CA7B9",
"a. c #8DA7BA",
"s. c #8CA8BB",
"d. c #8DA9BC",
"f. c #8DAABC",
"g. c #8FABBD",
"h. c #8FABBE",
"j. c #8EA9BC",
"k. c #8FACBE",
"l. c #90ACBF",
"z. c #91ADC0",
"x. c #93AFC1",
"c. c #92AEC0",
"v. c #93AFC2",
"b. c #94B0C2",
/* pixels */
"                                                                ",
"                                                                ",
"                                                                ",
"                                                                ",
"                                                                ",
"                                                                ",
"                                                                ",
"                                                                ",
"                                                                ",
"                                                                ",
"                                                                ",
"                                                                ",
"                      b.b.b.b.b.b.b.b.b.b.                      ",
"                  b.b.v.f.w.e.e.e.e.e.w.l.b.b.                  ",
"              b.b.v.8.6.8.w.t.t.t.t.t.e.6.9.b.b.b.              ",
"            v.s.9.9.t.b.b.b.b.b.b.b.b.b.b.t.q.9.w.f.            ",
"          v.f.9.e.l.b.b.b.b.b.b.b.b.b.b.b.b.b.s.9.e.l.          ",
"        b.8.8.f.v.b.b.b.b.b.b.b.b.b.b.b.b.b.b.b.v.w.w.l.        ",
"        s.8.t.b.b.b.b.b.b.b.b.b.b.b.b.b.b.b.b.b.b.l.9.t.        ",
"      b.v.f.v.b.b.b.b.b.b.b.b.b.b.b.b.b.b.b.b.b.b.b.f.k.b.      ",
"      b.b.b.b.b.b.b.b.b.b.b.b.b.b.b.b.b.b.b.b.b.b.b.b.b.b.      ",
"      b.b.b.b.b.b.b.b.b.b.b.b.b.b.b.b.b.b.b.b.b.b.b.b.b.b.      ",
"      b.b.b.b.b.b.b.b.b.b.b.b.b.b.b.b.b.b.b.b.b.b.b.b.b.b.      ",
"      5.8.b.b.b.b.b.b.b.b.b.b.b.b.b.b.b.b.b.b.b.b.b.b.t.0.      ",
"      9 > 7.b.b.b.b.b.b.b.b.b.b.b.b.b.b.b.b.b.b.b.b.4.s s       ",
"      0 6 q 4.v.b.b.b.b.b.b.b.b.b.b.b.b.b.b.b.b.f.4.9 9 q       ",
"      q q 6 ; ,.r.b.b.b.b.b.b.b.b.b.b.b.b.b.b.<.: ; 9 q q       ",
"      q q q 9 : 6 :.3.8.p.f.l.v.l.p.q.5.2.>.6 > 9 q q 0 9       ",
"      q q t q 9 6 : > i ,.<.2.2.1.,.s 0 6 > 6 0 q q t 6 :       ",
"      q q T n t q q 6 6 > > > > : > 6 6 0 q q q t n ..7 :       ",
"      q q ;.;.;.-.%.o.R m q q q q q j T R [ -.;.;.;.;.7 9       ",
"      q q ;.;.;.;.;.;.;.;.;.;.;.;.;.;.;.;.;.;.;.;.;.;.p q       ",
"      q q ;.;.;. .S ! ;.;.;.;.;.;.;.;.;.;.;.;.;.;.;.;.p q       ",
"      0 q ;.;.;.Q C B ;.;.;.;.;.;.;.;.;.;.;.;.;.;.;.;.p q       ",
"      6 q ;.;.;.! V B ;.;.;.;.;.;.;.;.;.;.;.;.;.;.;.;.p q       ",
"      : 6 ;.;.;.+.S C ;.;.;.;.;.;.;.;.;.;.;.;.;.;.;.;.t 9       ",
"      6 : ;.;.;.-.~ | ;.;.;.;.;.;.;.;.;.;.;.;.;.;.;.;.8 6       ",
"      6 : ;.;.;.-.~ | ;.;.;.;.;.;.;.;.;.;.;.;.;.;.;.;.8 6       ",
"                                                                ",
"                                                                ",
"                                                                ",
"                                                                ",
"                                                                ",
"                                                                ",
"                                                                ",
"                                                                ",
"                                                                ",
"                                                                ",
"                                                                ",
"                                                                ",
"                                                                ",
"                                                                ",
"                                                                ",
"                                                                ",
"                                                                ",
"                                                                ",
"                                                                ",
"                                                                ",
"                                                                ",
"                                                                ",
"                                                                ",
"                                                                ",
"                                                                ",
"                                                                ",
};
