/* XPM */
static char *_867839663e94577edbb95774aea1b4aaJSumoJcktmIk0pp[] = {
/* columns rows colors chars-per-pixel */
"32 32 3 1 ",
"  c #333C57",
". c #566C86",
"X c #94B0C2",
/* pixels */
"................................",
"XXXXXXXXXXXXXXXXXXXXXXXXXXXXXXXX",
"XXXXXXXXXXXXXXXXXXXXXXXXXXXXXXXX",
"XXXXXXXXXXXXXXXXXXXXXXXXXXXXXXXX",
"XXXXXXXXXXXXXXXXXXXXXXXXXXXXXXXX",
"XXXXXXXXXXXXXXXXXXXXXXXXXXXXXXXX",
"XXXXXXXXXXXXXXXXXXXXXXXXXXXXXXXX",
"................................",
"                                ",
"   ..........................   ",
"  ............................  ",
" .............................. ",
" .............................. ",
" .............................. ",
" .............................. ",
" .............................. ",
" .............................. ",
" .............................. ",
" .............................. ",
" .............................. ",
" .............................. ",
" .............................. ",
" .............................. ",
" .............................. ",
" .............................. ",
" .............................. ",
" .............................. ",
" .............................. ",
" .............................. ",
" .............................. ",
"  ............................  ",
"   ..........................   "
};
