/* XPM */
static char *_067ab227e6e401bea6bd9e11e7b5b440C0o62dfuUV2QekL[] = {
/* columns rows colors chars-per-pixel */
"32 32 6 1 ",
"  c black",
". c #333C57",
"X c #404E69",
"o c #556B85",
"O c #566C86",
"+ c #94B0C2",
/* pixels */
"                        O+++++++",
"                        O+++++++",
"                        O+++++++",
"                        O+++++++",
"                        O+++++++",
"                        OO++++++",
"                        OOO+++++",
"                        OOOOOOOO",
"                        OOOoX...",
"                        OOOOO...",
"                        OOOoOO..",
"                        OOOoOOO.",
"                        OOOOOOO.",
"                        OOOOOOO.",
"                        OOOOOOO.",
"                        OOOOOOO.",
"                        OOOOOOO.",
"                        OOOOOOO.",
"                        OOOOOOO.",
"                        OOOOOOO.",
"                        OOOOOOO.",
"                        OOOOOOO.",
"                        OOOOOOO.",
"                        OOOOOOO.",
"                        OOOOOOO.",
"                        OOOOOOO.",
"                        OOOOOOO.",
"                        OOOOOOO.",
"                        OOOOOOO.",
"                        OOOOOOO.",
"                         OOOOO..",
"                          OOO..."
};
